<svg xmlns="http://www.w3.org/2000/svg" viewBox="0 0 383.83 383.69"><defs><style>.cls-1,.cls-4{fill:#7526c3;}.cls-1,.cls-2,.cls-3{opacity:0.6;}.cls-2{fill:#e163e5;}.cls-3{fill:#ca00e0;}.cls-5{fill:#fff;}</style></defs><g id="Layer_2" data-name="Layer 2"><g id="Layer_1-2" data-name="Layer 1"><path class="cls-1" d="M206.86,157.14v0Z"/><path class="cls-1" d="M206.86,157.14v0Z"/><path class="cls-1" d="M156.58,34c4,0,8,.18,11.93.51a139.7,139.7,0,0,1,88.93-8.73A140,140,0,0,0,47,86.78,139.73,139.73,0,0,1,156.58,34Z"/><path class="cls-2" d="M64.32,232.05q-2-6.47-3.29-13A140.17,140.17,0,0,1,47,86.78,140,140,0,0,0,124.8,310.32,139.43,139.43,0,0,1,64.32,232.05Z"/><path class="cls-1" d="M168.5,34.47c-1.34.61-2.67,1.22-4,1.88s-2.64,1.31-3.95,2a137.33,137.33,0,0,0-12.87,7.72A139.62,139.62,0,0,0,133.56,57a123.35,123.35,0,0,0-57.73,66.14,0,0,0,0,0,0,0l-.44.78-.7,1.31-.17.32c-.4.75-.79,1.54-1.19,2.3a0,0,0,0,1,0,0c-.59,1.17-1.16,2.35-1.72,3.53-.46,1-.9,1.94-1.34,2.91-.36.82-.73,1.66-1.08,2.5-.25.6-.51,1.2-.75,1.81h0l-.9,2.3c-.34.88-.67,1.75-1,2.64-.07.21-.14.4-.21.6-.17.45-.33.92-.49,1.39-.27.78-.53,1.56-.79,2.34s-.49,1.53-.73,2.3c-.15.5-.3,1-.44,1.48s-.37,1.26-.54,1.91c-.08.27-.16.53-.23.81l-.06.23c-.21.74-.4,1.49-.59,2.24a1.16,1.16,0,0,0,0,.18c-.15.58-.3,1.18-.43,1.76,0,.18-.09.36-.13.53h0c-.15.64-.3,1.28-.44,1.94s-.28,1.27-.41,1.93c0,.14-.05.27-.08.4q-.21,1-.39,2l-.09.46-.18,1L60,168.35l-.12.74c0,.14-.05.31-.08.46l0,.18a.59.59,0,0,1,0,.14c0,.1,0,.2,0,.3l-.24,1.63-.06.5c-.06.41-.12.82-.17,1.24-.09.71-.18,1.44-.26,2.17l0,.29c-.2,1.85-.37,3.69-.5,5.55a1.09,1.09,0,0,1,0,.18c-.06.87-.11,1.73-.15,2.6s-.08,1.79-.1,2.7c0,.08,0,.16,0,.25,0,.25,0,.51,0,.76s0,.33,0,.5q-.06,4.11.1,8.25c0,.38,0,.79.05,1.19l0,.56,0,.44c0,.55.06,1.11.1,1.67.06.79.12,1.59.19,2.4l.09,1c0,.33.06.68.09,1,.05.51.11,1,.17,1.56q.7,6.24,2,12.49h0a138,138,0,0,1-9.18-15.42A140.28,140.28,0,0,1,47,86.79h0A143.48,143.48,0,0,1,57.27,75.27c2.27-2.27,4.61-4.48,7-6.6q2.9-2.53,5.93-4.92c1-.8,2-1.58,3.07-2.35s2.08-1.51,3.14-2.25A139,139,0,0,1,96.53,47.44c3.52-1.68,7.13-3.21,10.8-4.59,1.23-.46,2.46-.91,3.7-1.33s2.49-.84,3.75-1.23a139.69,139.69,0,0,1,41.79-6.35q4.37,0,8.66.28l.32,0c1,.07,2,.14,2.93.23Z"/><path class="cls-2" d="M168.5,34.47c-1.34.61-2.67,1.22-4,1.88s-2.64,1.31-3.95,2a137.33,137.33,0,0,0-12.87,7.72A139.62,139.62,0,0,0,133.56,57a123.35,123.35,0,0,0-57.73,66.14,0,0,0,0,0,0,0l-.44.78-.7,1.31-.17.32c-.4.75-.79,1.54-1.19,2.3a0,0,0,0,1,0,0c-.59,1.17-1.16,2.35-1.72,3.53-.46,1-.9,1.94-1.34,2.91-.36.82-.73,1.66-1.08,2.5-.25.6-.51,1.2-.75,1.81h0l-.9,2.3c-.34.88-.67,1.75-1,2.64-.07.21-.14.4-.21.6-.17.45-.33.92-.49,1.39-.27.78-.53,1.56-.79,2.34s-.49,1.53-.73,2.3c-.15.5-.3,1-.44,1.48s-.37,1.26-.54,1.91c-.08.27-.16.53-.23.81l-.06.23c-.21.74-.4,1.49-.59,2.24a1.16,1.16,0,0,0,0,.18c-.15.58-.3,1.18-.43,1.76,0,.18-.09.36-.13.53h0c-.15.64-.3,1.28-.44,1.94s-.28,1.27-.41,1.93c0,.14-.05.27-.08.4q-.21,1-.39,2l-.09.46-.18,1L60,168.35l-.12.74c0,.14-.05.31-.08.46l0,.18a.59.59,0,0,1,0,.14c0,.1,0,.2,0,.3l-.24,1.63-.06.5c-.06.41-.12.82-.17,1.24-.09.71-.18,1.44-.26,2.17l0,.29c-.2,1.85-.37,3.69-.5,5.55a1.09,1.09,0,0,1,0,.18c-.06.87-.11,1.73-.15,2.6s-.08,1.79-.1,2.7c0,.08,0,.16,0,.25,0,.25,0,.51,0,.76s0,.33,0,.5q-.06,4.11.1,8.25c0,.38,0,.79.05,1.19l0,.56,0,.44c0,.55.06,1.11.1,1.67.06.79.12,1.59.19,2.4l.09,1c0,.33.06.68.09,1,.05.51.11,1,.17,1.56q.7,6.24,2,12.49h0a138,138,0,0,1-9.18-15.42A140.28,140.28,0,0,1,47,86.79h0A143.48,143.48,0,0,1,57.27,75.27c2.27-2.27,4.61-4.48,7-6.6q2.9-2.53,5.93-4.92c1-.8,2-1.58,3.07-2.35s2.08-1.51,3.14-2.25A139,139,0,0,1,96.53,47.44c3.52-1.68,7.13-3.21,10.8-4.59,1.23-.46,2.46-.91,3.7-1.33s2.49-.84,3.75-1.23a139.69,139.69,0,0,1,41.79-6.35q4.37,0,8.66.28l.32,0c1,.07,2,.14,2.93.23Z"/><path class="cls-3" d="M214.09,301.63a140.58,140.58,0,0,1-89.29,8.69,140,140,0,0,0,187.32-37.83q-3.81,3-7.85,5.71A139.41,139.41,0,0,1,214.09,301.63Z"/><path class="cls-2" d="M214.08,301.62c-1.09.49-2.19,1-3.3,1.45-1.67.69-3.36,1.37-5.06,2q-1.69.63-3.42,1.23-3.44,1.19-7,2.2h0c-1.17.34-2.35.66-3.53,1h0a141.57,141.57,0,0,1-59.26,2.41q-3.9-.67-7.73-1.56h0c-.51-.31-1-.62-1.5-.95l-.12-.07-1.74-1.12-.54-.37c-.6-.38-1.19-.78-1.78-1.19l-.19-.13c-.61-.4-1.22-.83-1.82-1.26l-.28-.19-1.88-1.37-.09-.07-.31-.23-.3-.24c-.26-.19-.53-.38-.79-.59s-.75-.56-1.12-.85a3.75,3.75,0,0,1-.33-.26l-.4-.31c-.56-.43-1.11-.88-1.66-1.32l-.23-.18c-.64-.52-1.27-1.06-1.9-1.58l-.23-.2c-.39-.34-.79-.67-1.18-1l-.15-.12-.16-.13c-.4-.34-.79-.69-1.18-1.05s-.67-.59-1-.89a.94.94,0,0,1-.1-.1l-.15-.14h0l0,0-.12-.12-.13-.11-.08-.08-.93-.86-1.3-1.24c-.36-.33-.71-.69-1.06-1-.58-.57-1.16-1.16-1.73-1.74l-.35-.35-1-1-.23-.25c-.34-.33-.66-.69-1-1l-.31-.34c-.48-.51-1-1-1.43-1.55-.69-.78-1.38-1.56-2.06-2.35L90,280.05l-.12-.15h0c-.56-.68-1.12-1.37-1.66-2.07l-.3-.38-.36-.46c-.52-.66-1-1.34-1.55-2h0c-.63-.84-1.25-1.68-1.86-2.54l-1.5-2.15-.3-.45-.35-.52c-.47-.7-.94-1.4-1.4-2.11s-1-1.52-1.46-2.31c-.08-.12-.15-.25-.23-.38-.17-.28-.35-.56-.51-.85-.33-.53-.65-1.06-1-1.6l0-.06c-.11-.19-.23-.38-.33-.57l-.14-.24q-.45-.75-.87-1.53l-.07-.13-.07-.14a4.6,4.6,0,0,1-.25-.44l-.09-.16c-.54-1-1.06-1.93-1.57-2.92l0-.06c-.33-.63-.66-1.27-1-1.92l-.51-1c-.25-.51-.5-1-.74-1.56-.09-.19-.19-.39-.28-.59s-.19-.4-.28-.6c-.3-.63-.59-1.28-.88-1.94s-.53-1.19-.78-1.78-.55-1.29-.81-1.94a.54.54,0,0,1,0-.11c-.29-.69-.56-1.37-.83-2.07-.09-.24-.19-.47-.27-.71a3.12,3.12,0,0,1-.15-.39c-.12-.29-.22-.58-.33-.87a.52.52,0,0,1-.06-.16c-.22-.56-.42-1.15-.63-1.72l0-.09-.24-.67c-.1-.26-.18-.52-.27-.79l-.06-.16c-.21-.6-.42-1.22-.62-1.82-.26-.79-.52-1.59-.76-2.4,0-.14-.09-.3-.14-.44-.17-.55-.33-1.08-.48-1.62s-.26-.89-.38-1.33c0-.06,0-.12-.05-.18s-.07-.25-.1-.37c-.13-.44-.25-.89-.37-1.34h0l-.42-1.61c-.14-.54-.27-1.09-.4-1.62s-.26-1.08-.38-1.62h0c-.08-.32-.15-.64-.22-1,0,0,0-.07,0-.1-.14-.6-.27-1.19-.39-1.8,0-.12-.05-.25-.08-.37.61.89,1.23,1.76,1.86,2.63h0c.62.87,1.26,1.74,1.92,2.6s1.31,1.7,2,2.56q2,2.52,4.13,5c1.42,1.62,2.87,3.22,4.35,4.78.74.77,1.5,1.54,2.26,2.31a139.8,139.8,0,0,0,51.78,32.85A121.37,121.37,0,0,0,156,283.42,140.32,140.32,0,0,0,214.08,301.62Z"/><path class="cls-3" d="M214.08,301.62c-1.09.49-2.19,1-3.3,1.45-1.67.69-3.36,1.37-5.06,2q-1.69.63-3.42,1.23-3.44,1.19-7,2.2h0c-1.17.34-2.35.66-3.53,1h0a141.57,141.57,0,0,1-59.26,2.41q-3.9-.67-7.73-1.56h0c-.51-.31-1-.62-1.5-.95l-.12-.07-1.74-1.12-.54-.37c-.6-.38-1.19-.78-1.78-1.19l-.19-.13c-.61-.4-1.22-.83-1.82-1.26l-.28-.19-1.88-1.37-.09-.07-.31-.23-.3-.24c-.26-.19-.53-.38-.79-.59s-.75-.56-1.12-.85a3.75,3.75,0,0,1-.33-.26l-.4-.31c-.56-.43-1.11-.88-1.66-1.32l-.23-.18c-.64-.52-1.27-1.06-1.9-1.58l-.23-.2c-.39-.34-.79-.67-1.18-1l-.15-.12-.16-.13c-.4-.34-.79-.69-1.18-1.05s-.67-.59-1-.89a.94.94,0,0,1-.1-.1l-.15-.14h0l0,0-.12-.12-.13-.11-.08-.08-.93-.86-1.3-1.24c-.36-.33-.71-.69-1.06-1-.58-.57-1.16-1.16-1.73-1.74l-.35-.35-1-1-.23-.25c-.34-.33-.66-.69-1-1l-.31-.34c-.48-.51-1-1-1.43-1.55-.69-.78-1.38-1.56-2.06-2.35L90,280.05l-.12-.15h0c-.56-.68-1.12-1.37-1.66-2.07l-.3-.38-.36-.46c-.52-.66-1-1.34-1.55-2h0c-.63-.84-1.25-1.68-1.86-2.54l-1.5-2.15-.3-.45-.35-.52c-.47-.7-.94-1.4-1.4-2.11s-1-1.52-1.46-2.31c-.08-.12-.15-.25-.23-.38-.17-.28-.35-.56-.51-.85-.33-.53-.65-1.06-1-1.6l0-.06c-.11-.19-.23-.38-.33-.57l-.14-.24q-.45-.75-.87-1.53l-.07-.13-.07-.14a4.6,4.6,0,0,1-.25-.44l-.09-.16c-.54-1-1.06-1.93-1.57-2.92l0-.06c-.33-.63-.66-1.27-1-1.92l-.51-1c-.25-.51-.5-1-.74-1.56-.09-.19-.19-.39-.28-.59s-.19-.4-.28-.6c-.3-.63-.59-1.28-.88-1.94s-.53-1.19-.78-1.78-.55-1.29-.81-1.94a.54.54,0,0,1,0-.11c-.29-.69-.56-1.37-.83-2.07-.09-.24-.19-.47-.27-.71a3.12,3.12,0,0,1-.15-.39c-.12-.29-.22-.58-.33-.87a.52.52,0,0,1-.06-.16c-.22-.56-.42-1.15-.63-1.72l0-.09-.24-.67c-.1-.26-.18-.52-.27-.79l-.06-.16c-.21-.6-.42-1.22-.62-1.82-.26-.79-.52-1.59-.76-2.4,0-.14-.09-.3-.14-.44-.17-.55-.33-1.08-.48-1.62s-.26-.89-.38-1.33c0-.06,0-.12-.05-.18s-.07-.25-.1-.37c-.13-.44-.25-.89-.37-1.34h0l-.42-1.61c-.14-.54-.27-1.09-.4-1.62s-.26-1.08-.38-1.62h0c-.08-.32-.15-.64-.22-1,0,0,0-.07,0-.1-.14-.6-.27-1.19-.39-1.8,0-.12-.05-.25-.08-.37.61.89,1.23,1.76,1.86,2.63h0c.62.87,1.26,1.74,1.92,2.6s1.31,1.7,2,2.56q2,2.52,4.13,5c1.42,1.62,2.87,3.22,4.35,4.78.74.77,1.5,1.54,2.26,2.31a139.8,139.8,0,0,0,51.78,32.85A121.37,121.37,0,0,0,156,283.42,140.32,140.32,0,0,0,214.08,301.62Z"/><path class="cls-1" d="M129.3,271.81A139.8,139.8,0,0,1,77.52,239l-2.26-2.31c-1.48-1.56-2.93-3.16-4.35-4.78s-2.79-3.28-4.13-5c-.67-.86-1.33-1.7-2-2.56s-1.29-1.73-1.92-2.6h0c-.63-.87-1.25-1.74-1.86-2.63h0q-1.27-6.25-2-12.49c-.06-.51-.12-1.05-.17-1.56,0-.34-.06-.69-.09-1l-.09-1c0-.5-.09-1-.13-1.5q0-.47-.06-.9c0-.56-.07-1.12-.1-1.67l0-.44,0-.39V198c0-.4,0-.81-.05-1.19q-.16-4.14-.1-8.25c0-.17,0-.33,0-.5s0-.33,0-.49a2.44,2.44,0,0,1,0-.27c0-.09,0-.17,0-.25,0-.91.06-1.8.1-2.7s.09-1.73.15-2.6a1.09,1.09,0,0,0,0-.18c.13-1.86.3-3.7.5-5.55l0-.29c.08-.73.17-1.46.26-2.17,0-.42.11-.83.17-1.24l.06-.5.24-1.63a1.1,1.1,0,0,0,0-.18.5.5,0,0,1,0-.12.59.59,0,0,0,0-.14l0-.18c0-.15,0-.32.08-.46l.12-.74.21-1.23c0-.2.07-.41.1-.63s0-.18,0-.26,0-.11,0-.15l.09-.46q.18-1,.39-2c0-.13.05-.26.08-.4.13-.66.27-1.29.41-1.93s.28-1.3.43-1.93h0c0-.17.08-.35.13-.53.13-.58.28-1.18.43-1.76a1.16,1.16,0,0,1,0-.18c.19-.75.38-1.5.59-2.24l.06-.23c.07-.28.15-.54.23-.81s.15-.58.23-.85l.06-.21,0-.17.2-.68c.14-.49.29-1,.44-1.48.24-.77.48-1.53.73-2.3s.52-1.56.79-2.34c.16-.47.32-.94.49-1.39.07-.2.14-.39.21-.6.32-.89.65-1.76,1-2.64l.9-2.3h0c.24-.61.5-1.21.75-1.81s.51-1.21.77-1.82c.1-.23.21-.44.31-.68.44-1,.88-1.94,1.34-2.91.56-1.18,1.13-2.36,1.72-3.53a0,0,0,0,0,0,0c.4-.76.79-1.55,1.19-2.3l.17-.32.7-1.31.44-.78A123.12,123.12,0,0,0,129.3,271.81Z"/><path class="cls-2" d="M129.3,271.81A139.8,139.8,0,0,1,77.52,239l-2.26-2.31c-1.48-1.56-2.93-3.16-4.35-4.78s-2.79-3.28-4.13-5c-.67-.86-1.33-1.7-2-2.56s-1.29-1.73-1.92-2.6h0c-.63-.87-1.25-1.74-1.86-2.63h0q-1.27-6.25-2-12.49c-.06-.51-.12-1.05-.17-1.56,0-.34-.06-.69-.09-1l-.09-1c0-.5-.09-1-.13-1.5q0-.47-.06-.9c0-.56-.07-1.12-.1-1.67l0-.44,0-.39V198c0-.4,0-.81-.05-1.19q-.16-4.14-.1-8.25c0-.17,0-.33,0-.5s0-.33,0-.49a2.44,2.44,0,0,1,0-.27c0-.09,0-.17,0-.25,0-.91.06-1.8.1-2.7s.09-1.73.15-2.6a1.09,1.09,0,0,0,0-.18c.13-1.86.3-3.7.5-5.55l0-.29c.08-.73.17-1.46.26-2.17,0-.42.11-.83.17-1.24l.06-.5.24-1.63a1.1,1.1,0,0,0,0-.18.5.5,0,0,1,0-.12.59.59,0,0,0,0-.14l0-.18c0-.15,0-.32.08-.46l.12-.74.21-1.23c0-.2.07-.41.1-.63s0-.18,0-.26,0-.11,0-.15l.09-.46q.18-1,.39-2c0-.13.05-.26.08-.4.13-.66.27-1.29.41-1.93s.28-1.3.43-1.93h0c0-.17.08-.35.13-.53.13-.58.28-1.18.43-1.76a1.16,1.16,0,0,1,0-.18c.19-.75.38-1.5.59-2.24l.06-.23c.07-.28.15-.54.23-.81s.15-.58.23-.85l.06-.21,0-.17.2-.68c.14-.49.29-1,.44-1.48.24-.77.48-1.53.73-2.3s.52-1.56.79-2.34c.16-.47.32-.94.49-1.39.07-.2.14-.39.21-.6.32-.89.65-1.76,1-2.64l.9-2.3h0c.24-.61.5-1.21.75-1.81s.51-1.21.77-1.82c.1-.23.21-.44.31-.68.44-1,.88-1.94,1.34-2.91.56-1.18,1.13-2.36,1.72-3.53a0,0,0,0,0,0,0c.4-.76.79-1.55,1.19-2.3l.17-.32.7-1.31.44-.78A123.12,123.12,0,0,0,129.3,271.81Z"/><path class="cls-3" d="M129.3,271.81A139.8,139.8,0,0,1,77.52,239l-2.26-2.31c-1.48-1.56-2.93-3.16-4.35-4.78s-2.79-3.28-4.13-5c-.67-.86-1.33-1.7-2-2.56s-1.29-1.73-1.92-2.6h0c-.63-.87-1.25-1.74-1.86-2.63h0q-1.27-6.25-2-12.49c-.06-.51-.12-1.05-.17-1.56,0-.34-.06-.69-.09-1l-.09-1c0-.5-.09-1-.13-1.5q0-.47-.06-.9c0-.56-.07-1.12-.1-1.67l0-.44,0-.39V198c0-.4,0-.81-.05-1.19q-.16-4.14-.1-8.25c0-.17,0-.33,0-.5s0-.33,0-.49a2.44,2.44,0,0,1,0-.27c0-.09,0-.17,0-.25,0-.91.06-1.8.1-2.7s.09-1.73.15-2.6a1.09,1.09,0,0,0,0-.18c.13-1.86.3-3.7.5-5.55l0-.29c.08-.73.17-1.46.26-2.17,0-.42.11-.83.17-1.24l.06-.5.24-1.63a1.1,1.1,0,0,0,0-.18.5.5,0,0,1,0-.12.59.59,0,0,0,0-.14l0-.18c0-.15,0-.32.08-.46l.12-.74.21-1.23c0-.2.07-.41.1-.63s0-.18,0-.26,0-.11,0-.15l.09-.46q.18-1,.39-2c0-.13.05-.26.08-.4.13-.66.27-1.29.41-1.93s.28-1.3.43-1.93h0c0-.17.08-.35.13-.53.13-.58.28-1.18.43-1.76a1.16,1.16,0,0,1,0-.18c.19-.75.38-1.5.59-2.24l.06-.23c.07-.28.15-.54.23-.81s.15-.58.23-.85l.06-.21,0-.17.2-.68c.14-.49.29-1,.44-1.48.24-.77.48-1.53.73-2.3s.52-1.56.79-2.34c.16-.47.32-.94.49-1.39.07-.2.14-.39.21-.6.32-.89.65-1.76,1-2.64l.9-2.3h0c.24-.61.5-1.21.75-1.81s.51-1.21.77-1.82c.1-.23.21-.44.31-.68.44-1,.88-1.94,1.34-2.91.56-1.18,1.13-2.36,1.72-3.53a0,0,0,0,0,0,0c.4-.76.79-1.55,1.19-2.3l.17-.32.7-1.31.44-.78A123.12,123.12,0,0,0,129.3,271.81Z"/><path class="cls-1" d="M342,83.85a139.48,139.48,0,0,0-84.6-58.12A140,140,0,0,1,313.74,112a140.19,140.19,0,0,1-1.62,160.49A140,140,0,0,0,342,83.85Z"/><path class="cls-1" d="M313.73,112c-1.24-1.82-2.52-3.59-3.85-5.34-.66-.87-1.33-1.74-2-2.6-.51-.64-1-1.28-1.54-1.91q-1.56-1.9-3.18-3.73c-.54-.61-1.09-1.21-1.64-1.81-.73-.8-1.48-1.6-2.23-2.37s-1.52-1.56-2.28-2.32-1.46-1.44-2.2-2.14l-.35-.34c-.59-.56-1.18-1.1-1.78-1.64l-.6-.55c-1.53-1.38-3.09-2.74-4.68-4-.83-.69-1.67-1.36-2.52-2s-1.7-1.31-2.56-2-1.73-1.29-2.6-1.91c-.17-.12-.33-.24-.5-.34-.55-.41-1.1-.79-1.65-1.16-.17-.12-.33-.24-.5-.34-.89-.6-1.78-1.21-2.68-1.79h0l-2.72-1.73-1.41-.84-.43-.27-.43-.24h0v0a122.66,122.66,0,0,0-61.3-26.82,137.35,137.35,0,0,0-23-6.88c-1.35-.28-2.71-.55-4.07-.78-2.05-.35-4.11-.67-6.18-.94h0c-2.07-.27-4.17-.49-6.27-.67h0a.75.75,0,0,1,.13-.06c.44-.21.88-.4,1.32-.59s.88-.38,1.32-.57l.74-.31,1.67-.69.37-.14.19-.08c.84-.34,1.68-.66,2.53-1l.45-.17,1.72-.63,1.23-.43.13,0,.13,0,.42-.15.21-.07.2-.08,1.12-.37.18,0,.66-.21.85-.28.38-.12.47-.15c.37-.1.73-.21,1.1-.33h0l1.59-.46.56-.16,1.35-.37.27-.07,1.59-.42.83-.21,1-.23,1.64-.38.12,0,.13,0,1.51-.34.71-.14c.41-.1.82-.17,1.22-.25s.72-.14,1.08-.21l1.07-.2,1.2-.21c.71-.13,1.43-.25,2.14-.36l.54-.09.73-.11.54-.07,1.21-.17q1.13-.16,2.25-.3l.22,0,1.77-.19c.61-.07,1.21-.13,1.82-.18l1.67-.15h.15l1.93-.14,1.71-.09,1.34-.07q1.4-.06,2.79-.09l1.33,0c.6,0,1.22,0,1.83,0h1c.32,0,.64,0,1,0l2,0h0l2,.08,2,.09c.67,0,1.33.07,2,.12h0l2,.16c.66.05,1.32.11,2,.19q2,.2,4,.45l1,.13,1,.14.5.06.67.11.37.06.43.06.3.05.68.1.89.15.27.05,1,.18.75.14.32.06.47.1h.13c.19.05.39.09.58.12l.58.12,1.81.38c.65.13,1.3.28,1.94.43h0a141.35,141.35,0,0,1,17.5,14.69Q279.59,45,283.8,50c.7.84,1.39,1.68,2.07,2.53,1.36,1.7,2.69,3.44,4,5.2q3.86,5.3,7.21,11c1.11,1.88,2.19,3.79,3.22,5.73s2,3.92,3,5.91A139.64,139.64,0,0,1,313.73,112Z"/><path class="cls-1" d="M313.73,112c-1.24-1.82-2.52-3.59-3.85-5.34-.66-.87-1.33-1.74-2-2.6-.51-.64-1-1.28-1.54-1.91q-1.56-1.9-3.18-3.73c-.54-.61-1.09-1.21-1.64-1.81-.73-.8-1.48-1.6-2.23-2.37s-1.52-1.56-2.28-2.32-1.46-1.44-2.2-2.14l-.35-.34c-.59-.56-1.18-1.1-1.78-1.64l-.6-.55c-1.53-1.38-3.09-2.74-4.68-4-.83-.69-1.67-1.36-2.52-2s-1.7-1.31-2.56-2-1.73-1.29-2.6-1.91c-.17-.12-.33-.24-.5-.34-.55-.41-1.1-.79-1.65-1.16-.17-.12-.33-.24-.5-.34-.89-.6-1.78-1.21-2.68-1.79h0l-2.72-1.73-1.41-.84-.43-.27-.43-.24h0v0a122.66,122.66,0,0,0-61.3-26.82,137.35,137.35,0,0,0-23-6.88c-1.35-.28-2.71-.55-4.07-.78-2.05-.35-4.11-.67-6.18-.94h0c-2.07-.27-4.17-.49-6.27-.67h0a.75.75,0,0,1,.13-.06c.44-.21.88-.4,1.32-.59s.88-.38,1.32-.57l.74-.31,1.67-.69.37-.14.19-.08c.84-.34,1.68-.66,2.53-1l.45-.17,1.72-.63,1.23-.43.13,0,.13,0,.42-.15.21-.07.2-.08,1.12-.37.18,0,.66-.21.85-.28.38-.12.47-.15c.37-.1.73-.21,1.1-.33h0l1.59-.46.56-.16,1.35-.37.27-.07,1.59-.42.83-.21,1-.23,1.64-.38.12,0,.13,0,1.51-.34.71-.14c.41-.1.82-.17,1.22-.25s.72-.14,1.08-.21l1.07-.2,1.2-.21c.71-.13,1.43-.25,2.14-.36l.54-.09.73-.11.54-.07,1.21-.17q1.13-.16,2.25-.3l.22,0,1.77-.19c.61-.07,1.21-.13,1.82-.18l1.67-.15h.15l1.93-.14,1.71-.09,1.34-.07q1.4-.06,2.79-.09l1.33,0c.6,0,1.22,0,1.83,0h1c.32,0,.64,0,1,0l2,0h0l2,.08,2,.09c.67,0,1.33.07,2,.12h0l2,.16c.66.05,1.32.11,2,.19q2,.2,4,.45l1,.13,1,.14.5.06.67.11.37.06.43.06.3.05.68.1.89.15.27.05,1,.18.75.14.32.06.47.1h.13c.19.05.39.09.58.12l.58.12,1.81.38c.65.13,1.3.28,1.94.43h0a141.35,141.35,0,0,1,17.5,14.69Q279.59,45,283.8,50c.7.84,1.39,1.68,2.07,2.53,1.36,1.7,2.69,3.44,4,5.2q3.86,5.3,7.21,11c1.11,1.88,2.19,3.79,3.22,5.73s2,3.92,3,5.91A139.64,139.64,0,0,1,313.73,112Z"/><path class="cls-1" d="M208.07,43.74a124,124,0,0,0-16.79-1.13A122.38,122.38,0,0,0,133.56,57a139.62,139.62,0,0,1,14.12-10.89,137.33,137.33,0,0,1,12.87-7.72c1.31-.7,2.63-1.38,3.95-2s2.65-1.29,4-1.88h0c2.1.18,4.18.4,6.25.68h0c2.08.26,4.14.58,6.18.94,1.36.23,2.72.5,4.07.78A137.35,137.35,0,0,1,208.07,43.74Z"/><path class="cls-2" d="M208.07,43.74a124,124,0,0,0-16.79-1.13A122.38,122.38,0,0,0,133.56,57a139.62,139.62,0,0,1,14.12-10.89,137.33,137.33,0,0,1,12.87-7.72c1.31-.7,2.63-1.38,3.95-2s2.65-1.29,4-1.88h0c2.1.18,4.18.4,6.25.68h0c2.08.26,4.14.58,6.18.94,1.36.23,2.72.5,4.07.78A137.35,137.35,0,0,1,208.07,43.74Z"/><path class="cls-1" d="M208.07,43.74a124,124,0,0,0-16.79-1.13A122.38,122.38,0,0,0,133.56,57a139.62,139.62,0,0,1,14.12-10.89,137.33,137.33,0,0,1,12.87-7.72c1.31-.7,2.63-1.38,3.95-2s2.65-1.29,4-1.88h0c2.1.18,4.18.4,6.25.68h0c2.08.26,4.14.58,6.18.94,1.36.23,2.72.5,4.07.78A137.35,137.35,0,0,1,208.07,43.74Z"/><path class="cls-3" d="M338.21,192.84v.5a2,2,0,0,1,0,.24c0,.54,0,1.09,0,1.65l0,1c0,.33,0,.67,0,1q-.09,2-.24,4v.11c0,.08,0,.16,0,.26a.22.22,0,0,1,0,.08l-.12,1.49,0,.31c0,.31-.05.61-.08.92l-.09.91c-.07.67-.14,1.34-.22,2s-.13,1.05-.2,1.58c0,.16,0,.34-.06.52l0,.25c0,.3-.08.59-.13.9q-.11.83-.24,1.62c-.06.43-.13.86-.2,1.29a.68.68,0,0,1,0,.14l0,.19c0,.17-.05.32-.09.5s-.08.51-.13.77-.08.52-.13.77c-.12.68-.25,1.35-.38,2,0,.19-.07.37-.11.56-.15.77-.32,1.55-.49,2.31-.06.31-.13.61-.2.91l-.42,1.83c-.07.3-.14.61-.22.91s-.15.61-.23.92c-.15.61-.31,1.2-.47,1.81s-.32,1.2-.49,1.81c-.32,1.14-.66,2.28-1,3.4-.18.6-.37,1.19-.56,1.78-.56,1.7-1.14,3.4-1.76,5.09,0,0,0,0,0,0-.61,1.68-1.27,3.35-1.94,5h0c-.68,1.67-1.4,3.32-2.14,4.94h0s0,0,0,0c-.74,1.63-1.52,3.25-2.32,4.86-.3.61-.62,1.22-.94,1.83-.06.13-.13.25-.2.38l-.7,1.3c-.37.7-.76,1.41-1.16,2.11-.48.87-1,1.71-1.48,2.57l-.09.17c-.67,1.14-1.36,2.26-2.06,3.38l-1.09,1.7c-.37.57-.74,1.13-1.12,1.69s-.75,1.12-1.14,1.67l-.58.83-.58.82c-.64.5-1.27,1-1.92,1.47q-1.92,1.46-3.92,2.86l-2,1.39a139.56,139.56,0,0,1-90.17,23.41A140.31,140.31,0,0,0,257.43,271a77.12,77.12,0,0,0,27.15,5.05c3.86,0,7.36-2.75,8.89-7a13.34,13.34,0,0,0-1.85-12.54,109,109,0,0,1-7.2-10.68,122.52,122.52,0,0,0,29.83-80.29v-.27c.09-.48.18-1,.26-1.48s.22-1.27.31-1.91c.06-.36.12-.73.17-1.09.11-.68.21-1.36.29-2s.17-1.31.25-2a.78.78,0,0,0,0-.16c.08-.68.15-1.33.22-2s.15-1.38.2-2.07.12-1.37.17-2a.06.06,0,0,0,0-.06c.05-.68.1-1.37.14-2.06.08-1.39.15-2.79.19-4.2,0-.7,0-1.4,0-2.12,0-.34,0-.69,0-1.06V140c0-2.91-.09-5.82-.26-8.69s-.44-5.74-.79-8.57q-.35-2.82-.81-5.62c-.14-.82-.28-1.65-.44-2.49s-.32-1.76-.5-2.63a0,0,0,0,0,0,0c.34.53.7,1,1.05,1.56l.06.1c.22.35.45.7.68,1s.52.78.77,1.18l.75,1.2c.23.37.46.74.68,1.12s.36.58.53.87c.3.5.6,1,.89,1.51.18.31.36.6.53.91l.91,1.61.36.64.39.73a.83.83,0,0,0,.07.13l.06.12c.19.36.38.7.56,1.06a4.13,4.13,0,0,1,.22.42c.22.4.43.82.64,1.22.08.18.17.35.25.51s.29.55.42.82.27.56.4.84.28.57.42.86.27.56.4.84c.22.45.43.92.64,1.37l.14.31c.31.67.61,1.33.9,2h0q1,2.46,2,4.95c.32.84.64,1.67,1,2.53.12.31.23.63.35.95l.36,1c0,.06,0,.11.05.16.2.57.4,1.14.59,1.72s.43,1.29.64,1.93.41,1.31.61,2A140,140,0,0,1,338.21,192.84Z"/><path class="cls-1" d="M338.21,192.84v.5a2,2,0,0,1,0,.24c0,.54,0,1.09,0,1.65l0,1c0,.33,0,.67,0,1q-.09,2-.24,4v.11c0,.08,0,.16,0,.26a.22.22,0,0,1,0,.08l-.12,1.49,0,.31c0,.31-.05.61-.08.92l-.09.91c-.07.67-.14,1.34-.22,2s-.13,1.05-.2,1.58c0,.16,0,.34-.06.52l0,.25c0,.3-.08.59-.13.9q-.11.83-.24,1.62c-.06.43-.13.86-.2,1.29a.68.68,0,0,1,0,.14l0,.19c0,.17-.05.32-.09.5s-.08.51-.13.77-.08.52-.13.77c-.12.68-.25,1.35-.38,2,0,.19-.07.37-.11.56-.15.77-.32,1.55-.49,2.31-.06.31-.13.61-.2.91l-.42,1.83c-.07.3-.14.61-.22.91s-.15.61-.23.92c-.15.61-.31,1.2-.47,1.81s-.32,1.2-.49,1.81c-.32,1.14-.66,2.28-1,3.4-.18.6-.37,1.19-.56,1.78-.56,1.7-1.14,3.4-1.76,5.09,0,0,0,0,0,0-.61,1.68-1.27,3.35-1.94,5h0c-.68,1.67-1.4,3.32-2.14,4.94h0s0,0,0,0c-.74,1.63-1.52,3.25-2.32,4.86-.3.61-.62,1.22-.94,1.83-.06.13-.13.25-.2.38l-.7,1.3c-.37.7-.76,1.41-1.16,2.11-.48.87-1,1.71-1.48,2.57l-.09.17c-.67,1.14-1.36,2.26-2.06,3.38l-1.09,1.7c-.37.57-.74,1.13-1.12,1.69s-.75,1.12-1.14,1.67l-.58.83-.58.82c-.64.5-1.27,1-1.92,1.47q-1.92,1.46-3.92,2.86l-2,1.39a139.56,139.56,0,0,1-90.17,23.41A140.31,140.31,0,0,0,257.43,271a77.12,77.12,0,0,0,27.15,5.05c3.86,0,7.36-2.75,8.89-7a13.34,13.34,0,0,0-1.85-12.54,109,109,0,0,1-7.2-10.68,122.52,122.52,0,0,0,29.83-80.29v-.27c.09-.48.18-1,.26-1.48s.22-1.27.31-1.91c.06-.36.12-.73.17-1.09.11-.68.21-1.36.29-2s.17-1.31.25-2a.78.78,0,0,0,0-.16c.08-.68.15-1.33.22-2s.15-1.38.2-2.07.12-1.37.17-2a.06.06,0,0,0,0-.06c.05-.68.1-1.37.14-2.06.08-1.39.15-2.79.19-4.2,0-.7,0-1.4,0-2.12,0-.34,0-.69,0-1.06V140c0-2.91-.09-5.82-.26-8.69s-.44-5.74-.79-8.57q-.35-2.82-.81-5.62c-.14-.82-.28-1.65-.44-2.49s-.32-1.76-.5-2.63a0,0,0,0,0,0,0c.34.53.7,1,1.05,1.56l.06.1c.22.35.45.7.68,1s.52.78.77,1.18l.75,1.2c.23.37.46.74.68,1.12s.36.58.53.87c.3.5.6,1,.89,1.51.18.31.36.6.53.91l.91,1.61.36.64.39.73a.83.83,0,0,0,.07.13l.06.12c.19.36.38.7.56,1.06a4.13,4.13,0,0,1,.22.42c.22.4.43.82.64,1.22.08.18.17.35.25.51s.29.55.42.82.27.56.4.84.28.57.42.86.27.56.4.84c.22.45.43.92.64,1.37l.14.31c.31.67.61,1.33.9,2h0q1,2.46,2,4.95c.32.84.64,1.67,1,2.53.12.31.23.63.35.95l.36,1c0,.06,0,.11.05.16.2.57.4,1.14.59,1.72s.43,1.29.64,1.93.41,1.31.61,2A140,140,0,0,1,338.21,192.84Z"/><path class="cls-1" d="M316.54,140c0,.37,0,.72,0,1.06s0,.72,0,1.06c0,.72,0,1.42,0,2.12,0,1.41-.1,2.81-.19,4.2,0,.69-.09,1.38-.14,2.06a.06.06,0,0,1,0,.06c-.05.68-.11,1.37-.17,2s-.12,1.38-.2,2.07-.14,1.32-.22,2a.78.78,0,0,1,0,.16c-.08.65-.16,1.31-.25,2s-.18,1.36-.29,2c-.05.36-.11.73-.17,1.09-.09.64-.19,1.27-.31,1.91s-.17,1-.26,1.48a122.7,122.7,0,0,0-44.87-94.72h0l.43.25.43.27,1.41.84,2.72,1.73h0c.9.58,1.79,1.19,2.68,1.79.17.1.33.22.5.34.55.37,1.1.75,1.65,1.16.17.1.33.22.5.34.87.62,1.74,1.26,2.6,1.91s1.72,1.29,2.56,2,1.69,1.35,2.52,2c1.59,1.29,3.15,2.65,4.68,4l.6.55c.6.54,1.19,1.08,1.78,1.64l.35.34c.74.7,1.48,1.41,2.2,2.14s1.52,1.52,2.28,2.32,1.5,1.57,2.23,2.37c.55.6,1.1,1.2,1.64,1.81q1.62,1.83,3.18,3.73c.52.63,1,1.27,1.54,1.91.68.86,1.35,1.73,2,2.6,1.33,1.75,2.61,3.52,3.85,5.34.18.87.35,1.75.5,2.63s.3,1.67.44,2.49q.46,2.81.81,5.62c.35,2.83.62,5.69.79,8.57S316.54,137.06,316.54,140Z"/><path class="cls-3" d="M316.54,140c0,.37,0,.72,0,1.06s0,.72,0,1.06c0,.72,0,1.42,0,2.12,0,1.41-.1,2.81-.19,4.2,0,.69-.09,1.38-.14,2.06a.06.06,0,0,1,0,.06c-.05.68-.11,1.37-.17,2s-.12,1.38-.2,2.07-.14,1.32-.22,2a.78.78,0,0,1,0,.16c-.08.65-.16,1.31-.25,2s-.18,1.36-.29,2c-.05.36-.11.73-.17,1.09-.09.64-.19,1.27-.31,1.91s-.17,1-.26,1.48a122.7,122.7,0,0,0-44.87-94.72h0l.43.25.43.27,1.41.84,2.72,1.73h0c.9.58,1.79,1.19,2.68,1.79.17.1.33.22.5.34.55.37,1.1.75,1.65,1.16.17.1.33.22.5.34.87.62,1.74,1.26,2.6,1.91s1.72,1.29,2.56,2,1.69,1.35,2.52,2c1.59,1.29,3.15,2.65,4.68,4l.6.55c.6.54,1.19,1.08,1.78,1.64l.35.34c.74.7,1.48,1.41,2.2,2.14s1.52,1.52,2.28,2.32,1.5,1.57,2.23,2.37c.55.6,1.1,1.2,1.64,1.81q1.62,1.83,3.18,3.73c.52.63,1,1.27,1.54,1.91.68.86,1.35,1.73,2,2.6,1.33,1.75,2.61,3.52,3.85,5.34.18.87.35,1.75.5,2.63s.3,1.67.44,2.49q.46,2.81.81,5.62c.35,2.83.62,5.69.79,8.57S316.54,137.06,316.54,140Z"/><path class="cls-1" d="M316.54,140c0,.37,0,.72,0,1.06s0,.72,0,1.06c0,.72,0,1.42,0,2.12,0,1.41-.1,2.81-.19,4.2,0,.69-.09,1.38-.14,2.06a.06.06,0,0,1,0,.06c-.05.68-.11,1.37-.17,2s-.12,1.38-.2,2.07-.14,1.32-.22,2a.78.78,0,0,1,0,.16c-.08.65-.16,1.31-.25,2s-.18,1.36-.29,2c-.05.36-.11.73-.17,1.09-.09.64-.19,1.27-.31,1.91s-.17,1-.26,1.48a122.7,122.7,0,0,0-44.87-94.72h0l.43.25.43.27,1.41.84,2.72,1.73h0c.9.58,1.79,1.19,2.68,1.79.17.1.33.22.5.34.55.37,1.1.75,1.65,1.16.17.1.33.22.5.34.87.62,1.74,1.26,2.6,1.91s1.72,1.29,2.56,2,1.69,1.35,2.52,2c1.59,1.29,3.15,2.65,4.68,4l.6.55c.6.54,1.19,1.08,1.78,1.64l.35.34c.74.7,1.48,1.41,2.2,2.14s1.52,1.52,2.28,2.32,1.5,1.57,2.23,2.37c.55.6,1.1,1.2,1.64,1.81q1.62,1.83,3.18,3.73c.52.63,1,1.27,1.54,1.91.68.86,1.35,1.73,2,2.6,1.33,1.75,2.61,3.52,3.85,5.34.18.87.35,1.75.5,2.63s.3,1.67.44,2.49q.46,2.81.81,5.62c.35,2.83.62,5.69.79,8.57S316.54,137.06,316.54,140Z"/><path class="cls-2" d="M257.43,271a140.31,140.31,0,0,1-43.35,30.59A140.32,140.32,0,0,1,156,283.42a123.3,123.3,0,0,0,99.67-13.07C256.27,270.59,256.85,270.8,257.43,271Z"/><path class="cls-3" d="M257.43,271a140.31,140.31,0,0,1-43.35,30.59A140.32,140.32,0,0,1,156,283.42a123.3,123.3,0,0,0,99.67-13.07C256.27,270.59,256.85,270.8,257.43,271Z"/><path class="cls-1" d="M257.43,271a140.31,140.31,0,0,1-43.35,30.59A140.32,140.32,0,0,1,156,283.42a123.3,123.3,0,0,0,99.67-13.07C256.27,270.59,256.85,270.8,257.43,271Z"/><path class="cls-4" d="M270.66,136.76c-12.47,0-22.55,12.07-22.55,27s10.08,27,22.55,27,22.56-12.08,22.56-27S283.14,136.76,270.66,136.76Zm-78.94,0c-12.48,0-22.55,12.07-22.55,27s10.07,27,22.55,27,22.55-12.08,22.55-27S204.2,136.76,191.72,136.76Zm-79,0c-12.48,0-22.55,12.07-22.55,27s10.07,27,22.55,27,22.57-12.08,22.57-27S125.24,136.76,112.76,136.76Zm0,0c-12.48,0-22.55,12.07-22.55,27s10.07,27,22.55,27,22.57-12.08,22.57-27S125.24,136.76,112.76,136.76Zm79,0c-12.48,0-22.55,12.07-22.55,27s10.07,27,22.55,27,22.55-12.08,22.55-27S204.2,136.76,191.72,136.76Zm78.94,0c-12.47,0-22.55,12.07-22.55,27s10.08,27,22.55,27,22.56-12.08,22.56-27S283.14,136.76,270.66,136.76Zm-157.9,0c-12.48,0-22.55,12.07-22.55,27s10.07,27,22.55,27,22.57-12.08,22.57-27S125.24,136.76,112.76,136.76Zm79,0c-12.48,0-22.55,12.07-22.55,27s10.07,27,22.55,27,22.55-12.08,22.55-27S204.2,136.76,191.72,136.76Zm78.94,0c-12.47,0-22.55,12.07-22.55,27s10.08,27,22.55,27,22.56-12.08,22.56-27S283.14,136.76,270.66,136.76Z"/><path class="cls-4" d="M135.33,163.8c0,14.94-10.09,27-22.57,27s-22.55-12.08-22.55-27,10.07-27,22.55-27S135.33,148.83,135.33,163.8Z"/><path class="cls-4" d="M214.27,163.8c0,14.94-10.07,27-22.55,27s-22.55-12.08-22.55-27,10.07-27,22.55-27S214.27,148.83,214.27,163.8Z"/><path class="cls-5" d="M314.25,165.31a122.7,122.7,0,0,0-44.87-94.72h0v0a122.66,122.66,0,0,0-61.3-26.82,124,124,0,0,0-16.79-1.13,123,123,0,0,0-115.45,80.5,0,0,0,0,0,0,0A123.12,123.12,0,0,0,129.3,271.81a123.11,123.11,0,0,0,126.4-1.46c.57.24,1.15.45,1.73.68a77.12,77.12,0,0,0,27.15,5.05c3.86,0,7.36-2.75,8.89-7a13.34,13.34,0,0,0-1.85-12.54,109,109,0,0,1-7.2-10.68,122.52,122.52,0,0,0,29.83-80.29ZM112.76,190.82c-12.48,0-22.55-12.08-22.55-27s10.07-27,22.55-27,22.57,12.07,22.57,27S125.24,190.82,112.76,190.82Zm79,0c-12.48,0-22.55-12.08-22.55-27s10.07-27,22.55-27,22.55,12.07,22.55,27S204.2,190.82,191.72,190.82Zm78.94,0c-12.47,0-22.55-12.08-22.55-27s10.08-27,22.55-27,22.56,12.07,22.56,27S283.14,190.82,270.66,190.82Z"/><path class="cls-4" d="M293.22,163.8c0,14.94-10.08,27-22.56,27s-22.55-12.08-22.55-27,10.08-27,22.55-27S293.22,148.83,293.22,163.8Z"/><path class="cls-4" d="M13.56,383.69C4.3,383.69,0,380.11,0,372.45V355.3C0,347.58,4.3,344,13.56,344H27c1.38,0,2,.61,2,2v6.68c0,1.37-.61,2-2,2H15.93c-2.31,0-3.36.88-3.36,2.76v13.12c0,1.82,1,2.64,3.36,2.64H27c1.38,0,2,.61,2,2v6.56c0,1.38-.61,2-2,2Z"/><path class="cls-4" d="M37.21,383.69c-1.37,0-2-.6-2-2V346c0-1.37.61-2,2-2h8.55c1.38,0,2,.61,2,2v12H57V346c0-1.37.61-2,2-2h8.54c1.38,0,2,.61,2,2v35.73c0,1.38-.6,2-2,2H58.94c-1.38,0-2-.6-2-2V369.47H47.74v12.24c0,1.38-.6,2-2,2Z"/><path class="cls-4" d="M86.34,383.69H78.23c-1.38,0-2-.6-2-2V367.15c0-2.2.66-5,2.15-8.82l4.79-12.51A2.6,2.6,0,0,1,86,344h14.83a2.56,2.56,0,0,1,2.75,1.82l4.8,12.51c1.49,3.86,2.15,6.62,2.15,8.82v14.56c0,1.38-.61,2-2,2h-8.32c-1.49,0-2.15-.6-2.15-2V374H88.32v7.72C88.32,383.09,87.71,383.69,86.34,383.69ZM88.87,364h8.66l-2.59-8.38c-.28-.67-.61-.94-1-.94H92.51c-.44,0-.77.27-1.05.94Z"/><path class="cls-4" d="M124.93,383.69c-1.38,0-2-.6-2-2V354.64h-8.1c-1.38,0-2-.61-2-2V346c0-1.37.6-2,2-2H144c1.38,0,2,.61,2,2v6.68c0,1.37-.6,2-2,2h-8.1v27.07c0,1.38-.61,2-2,2Z"/><path class="cls-4" d="M165.12,383.69c-1.38,0-2-.6-2-2V346c0-1.37.6-2,2-2h24.59c1.38,0,2,.61,2,2v6.56c0,1.38-.6,2-2,2H175.65v5.73h9.59c1.38,0,2,.61,2,2v6.61c0,1.38-.61,2-2,2h-9.59v10.86c0,1.38-.61,2-2,2Z"/><path class="cls-4" d="M204.54,383.69h-8.1c-1.38,0-2-.6-2-2V367.15c0-2.2.66-5,2.15-8.82l4.8-12.51a2.59,2.59,0,0,1,2.81-1.82H219a2.57,2.57,0,0,1,2.76,1.82l4.79,12.51c1.49,3.86,2.15,6.62,2.15,8.82v14.56c0,1.38-.6,2-2,2h-8.33c-1.48,0-2.15-.6-2.15-2V374h-9.75v7.72C206.53,383.09,205.92,383.69,204.54,383.69ZM207.08,364h8.65l-2.59-8.38c-.27-.67-.6-.94-1-.94h-1.37c-.45,0-.78.27-1.05.94Z"/><path class="cls-4" d="M237.51,383.69c-1.38,0-2-.6-2-2V346c0-1.37.6-2,2-2h8.88a2.61,2.61,0,0,1,2.53,1.65l5,9c.39.66.56.94,1,.94h.49c.44,0,.61-.28,1-.94l4.9-9a2.61,2.61,0,0,1,2.54-1.65h8.93c1.38,0,2,.61,2,2v35.73c0,1.38-.6,2-2,2h-8.49c-1.43,0-2-.6-2-2V362.3l-3.26,6a2.9,2.9,0,0,1-2.92,1.77h-2.21a2.9,2.9,0,0,1-2.92-1.77l-3.25-6v19.41c0,1.38-.61,2-2,2Z"/><path class="cls-4" d="M281.45,381.71v-6.56c0-1.38.61-2,2-2h5.46V354.64h-5.46c-1.38,0-2-.61-2-2V346c0-1.37.61-2,2-2h23.48c1.38,0,2,.61,2,2v6.68c0,1.37-.61,2-2,2h-5.35v18.52h5.35c1.38,0,2,.61,2,2v6.56c0,1.38-.61,2-2,2H283.44C282.06,383.69,281.45,383.09,281.45,381.71Z"/><path class="cls-4" d="M317.68,383.69c-1.38,0-2-.6-2-2V346c0-1.37.61-2,2-2h8.54c1.38,0,2,.61,2,2v27.29h7.56v-8.93c0-1.38.6-2,2-2h8c1.37,0,2,.6,2,2v17.37c0,1.38-.61,2-2,2Z"/><path class="cls-4" d="M362.44,383.69c-1.43,0-2-.6-2-2v-7.06L352,363.35c-1.71-2.26-2.09-3.36-2.09-6.78V346c0-1.37.6-2,2-2h8.49c1.38,0,2,.61,2,2v9a4,4,0,0,0,.49,2.31l2.54,4c.39.66.72.94,1.32.94h.55c.61,0,.94-.28,1.33-.94l2.53-4a3.9,3.9,0,0,0,.5-2.31v-9c0-1.37.61-2,2-2h8.22c1.38,0,2,.61,2,2v10.59c0,3.42-.44,4.52-2.09,6.78l-8.38,11.36v7c0,1.38-.61,2-2,2Z"/></g></g></svg>