<svg xmlns="http://www.w3.org/2000/svg" viewBox="0 0 133.85 126.85"><defs><style>.cls-1,.cls-4{fill:#7526c3;}.cls-1,.cls-2,.cls-3{opacity:0.6;}.cls-2{fill:#e163e5;}.cls-3{fill:#ca00e0;}.cls-5{fill:#fff;}</style></defs><g id="Layer_2" data-name="Layer 2"><g id="Layer_1-2" data-name="Layer 1"><path class="cls-1" d="M72.89,60.2Z"/><path class="cls-1" d="M72.89,60.2Z"/><path class="cls-1" d="M53.63,13c1.54,0,3.06.07,4.57.2A53.48,53.48,0,0,1,92.27,9.86,53.65,53.65,0,0,0,11.66,33.24,53.56,53.56,0,0,1,53.63,13Z"/><path class="cls-2" d="M18.29,88.89c-.51-1.65-.92-3.31-1.26-5a53.71,53.71,0,0,1-5.37-50.69,53.64,53.64,0,0,0,29.8,85.63A53.39,53.39,0,0,1,18.29,88.89Z"/><path class="cls-1" d="M58.19,13.2c-.51.23-1,.47-1.52.72s-1,.5-1.51.77a54.28,54.28,0,0,0-10.34,7.13A47.23,47.23,0,0,0,22.7,47.16h0c-.06.1-.12.2-.17.3l-.27.5-.06.12c-.16.29-.3.59-.46.88-.23.45-.45.9-.66,1.36s-.35.74-.51,1.12l-.12.26-.3.69c-.09.23-.19.46-.28.7h0c-.11.29-.23.58-.34.88s-.26.67-.38,1a2.09,2.09,0,0,0-.08.23c-.07.17-.13.35-.19.53l-.3.9c-.1.29-.19.59-.28.88s-.12.38-.17.57-.05.17-.08.26a1,1,0,0,1,0,.14l-.09.33-.09.31a.29.29,0,0,1,0,.09c-.08.28-.15.57-.23.85,0,0,0,.05,0,.07-.06.23-.12.45-.17.68a1.46,1.46,0,0,1-.05.2h0c-.06.24-.11.49-.16.74s-.11.49-.16.74l0,.15c-.06.26-.1.52-.15.77s-.07.39-.1.58-.06.31-.08.46a2.93,2.93,0,0,0-.05.29l0,.17a.22.22,0,0,0,0,.08s0,.06,0,.1a.2.2,0,0,1,0,.07l-.09.62c0,.06,0,.13,0,.19s-.05.32-.07.47-.06.56-.1.83a.49.49,0,0,1,0,.12c-.07.7-.14,1.41-.19,2.12v.07c0,.33,0,.66-.06,1s0,.69,0,1c0,.19,0,.39,0,.58,0,1,0,2.1,0,3.16,0,.15,0,.3,0,.46s0,.14,0,.21a1,1,0,0,0,0,.17c0,.21,0,.42,0,.64s0,.61.07.92l0,.37c0,.13,0,.26,0,.39s0,.41.06.6c.18,1.59.43,3.19.76,4.79a53.66,53.66,0,0,1-5.36-50.69A53.52,53.52,0,0,1,53.63,13C55.17,13,56.69,13.07,58.19,13.2Z"/><path class="cls-2" d="M58.19,13.2c-.51.23-1,.47-1.52.72s-1,.5-1.51.77a54.28,54.28,0,0,0-10.34,7.13A47.23,47.23,0,0,0,22.7,47.16h0c-.06.1-.12.2-.17.3l-.27.5-.06.12c-.16.29-.3.59-.46.88-.23.45-.45.9-.66,1.36s-.35.74-.51,1.12l-.12.26-.3.69c-.09.23-.19.46-.28.7h0c-.11.29-.23.58-.34.88s-.26.67-.38,1a2.09,2.09,0,0,0-.08.23c-.07.17-.13.35-.19.53l-.3.9c-.1.29-.19.59-.28.88s-.12.38-.17.57-.05.17-.08.26a1,1,0,0,1,0,.14l-.09.33-.09.31a.29.29,0,0,1,0,.09c-.08.28-.15.57-.23.85,0,0,0,.05,0,.07-.06.23-.12.45-.17.68a1.46,1.46,0,0,1-.05.2h0c-.06.24-.11.49-.16.74s-.11.49-.16.74l0,.15c-.06.26-.1.52-.15.77s-.07.39-.1.58-.06.31-.08.46a2.93,2.93,0,0,0-.05.29l0,.17a.22.22,0,0,0,0,.08s0,.06,0,.1a.2.2,0,0,1,0,.07l-.09.62c0,.06,0,.13,0,.19s-.05.32-.07.47-.06.56-.1.83a.49.49,0,0,1,0,.12c-.07.7-.14,1.41-.19,2.12v.07c0,.33,0,.66-.06,1s0,.69,0,1c0,.19,0,.39,0,.58,0,1,0,2.1,0,3.16,0,.15,0,.3,0,.46s0,.14,0,.21a1,1,0,0,0,0,.17c0,.21,0,.42,0,.64s0,.61.07.92l0,.37c0,.13,0,.26,0,.39s0,.41.06.6c.18,1.59.43,3.19.76,4.79a53.66,53.66,0,0,1-5.36-50.69A53.52,53.52,0,0,1,53.63,13C55.17,13,56.69,13.07,58.19,13.2Z"/><path class="cls-3" d="M75.66,115.54a53.84,53.84,0,0,1-34.2,3.33,53.6,53.6,0,0,0,71.75-14.49c-1,.76-2,1.49-3,2.19A53.38,53.38,0,0,1,75.66,115.54Z"/><path class="cls-2" d="M75.66,115.54a53.81,53.81,0,0,1-34.19,3.33h0l-.32-.21-.24-.16-.05,0-.67-.43-.89-.59-.87-.61-.76-.55-.1-.07-.13-.11-.73-.55-.13-.1c-.26-.2-.53-.41-.79-.63l-.09-.06-.72-.61-.54-.47-.12-.1-.78-.68-.06-.06-.09-.09h0l-.1-.09,0,0-.36-.33-.49-.47-.41-.4-.66-.66-.6-.62-.37-.39-.12-.13-.55-.6-.79-.9-.72-.86-.05,0-.75-.94-.73-1c-.24-.32-.48-.64-.71-1s-.47-.66-.69-1-.45-.67-.67-1l-.65-1-.57-.95a0,0,0,0,0,0,0l-.06-.11-.06-.11,0,0,0,0-.33-.59-.05-.09-.1-.17c-.22-.39-.43-.79-.64-1.19a0,0,0,0,0,0,0l-.37-.73-.19-.39c-.1-.2-.2-.4-.29-.6l-.21-.45c-.12-.25-.23-.5-.34-.75l-.3-.68c-.22-.52-.44-1-.65-1.58-.1-.25-.19-.5-.28-.75l0-.07-.24-.65L19,91a2.47,2.47,0,0,1-.1-.29l0-.07c-.08-.23-.16-.46-.23-.7s-.15-.46-.23-.69l-.07-.22a.84.84,0,0,0-.05-.17c-.06-.21-.13-.42-.18-.62s-.11-.39-.17-.58a.74.74,0,0,0,0-.14c0-.17-.09-.35-.14-.52s-.11-.41-.16-.62l-.15-.62-.15-.62-.09-.41-.15-.69,0-.14c.23.34.47.68.71,1s.49.67.74,1l.76,1c.51.64,1,1.28,1.58,1.9s1.1,1.23,1.67,1.83c.28.3.57.59.86.88a53.57,53.57,0,0,0,19.84,12.59,46.55,46.55,0,0,0,10.24,4.45A53.78,53.78,0,0,0,75.66,115.54Z"/><path class="cls-3" d="M75.66,115.54a53.81,53.81,0,0,1-34.19,3.33h0l-.32-.21-.24-.16-.05,0-.67-.43-.89-.59-.87-.61-.76-.55-.1-.07-.13-.11-.73-.55-.13-.1c-.26-.2-.53-.41-.79-.63l-.09-.06-.72-.61-.54-.47-.12-.1-.78-.68-.06-.06-.09-.09h0l-.1-.09,0,0-.36-.33-.49-.47-.41-.4-.66-.66-.6-.62-.37-.39-.12-.13-.55-.6-.79-.9-.72-.86-.05,0-.75-.94-.73-1c-.24-.32-.48-.64-.71-1s-.47-.66-.69-1-.45-.67-.67-1l-.65-1-.57-.95a0,0,0,0,0,0,0l-.06-.11-.06-.11,0,0,0,0-.33-.59-.05-.09-.1-.17c-.22-.39-.43-.79-.64-1.19a0,0,0,0,0,0,0l-.37-.73-.19-.39c-.1-.2-.2-.4-.29-.6l-.21-.45c-.12-.25-.23-.5-.34-.75l-.3-.68c-.22-.52-.44-1-.65-1.58-.1-.25-.19-.5-.28-.75l0-.07-.24-.65L19,91a2.47,2.47,0,0,1-.1-.29l0-.07c-.08-.23-.16-.46-.23-.7s-.15-.46-.23-.69l-.07-.22a.84.84,0,0,0-.05-.17c-.06-.21-.13-.42-.18-.62s-.11-.39-.17-.58a.74.74,0,0,0,0-.14c0-.17-.09-.35-.14-.52s-.11-.41-.16-.62l-.15-.62-.15-.62-.09-.41-.15-.69,0-.14c.23.34.47.68.71,1s.49.67.74,1l.76,1c.51.64,1,1.28,1.58,1.9s1.1,1.23,1.67,1.83c.28.3.57.59.86.88a53.57,53.57,0,0,0,19.84,12.59,46.55,46.55,0,0,0,10.24,4.45A53.78,53.78,0,0,0,75.66,115.54Z"/><path class="cls-1" d="M43.19,104.12A53.57,53.57,0,0,1,23.35,91.53c-.29-.29-.58-.58-.86-.88-.57-.6-1.13-1.21-1.67-1.83s-1.07-1.26-1.58-1.9l-.76-1c-.25-.33-.5-.66-.74-1s-.48-.67-.71-1c-.33-1.6-.58-3.2-.76-4.79,0-.19,0-.4-.06-.6s0-.26,0-.39l0-.37c0-.19,0-.39-.05-.58s0-.23,0-.34,0-.43,0-.64a1,1,0,0,1,0-.17l0-.15v-.06c0-.16,0-.31,0-.46,0-1.06-.05-2.11,0-3.16v-.38c0-.07,0-.13,0-.2,0-.34,0-.69,0-1s0-.67.06-1v-.07c.05-.71.12-1.42.19-2.12a.49.49,0,0,0,0-.12c0-.27.07-.55.1-.83s.05-.31.07-.47,0-.13,0-.19l.09-.62a.2.2,0,0,0,0-.07s0-.07,0-.1a.22.22,0,0,1,0-.08l0-.17a2.93,2.93,0,0,1,.05-.29c0-.15.05-.31.08-.46l0-.24a.43.43,0,0,0,0-.11.11.11,0,0,0,0-.05,1.16,1.16,0,0,0,0-.18c.05-.25.09-.51.15-.77l0-.15c.05-.25.1-.5.16-.74s.1-.5.16-.74h0a1.46,1.46,0,0,0,.05-.2c.05-.23.11-.45.17-.68,0,0,0,0,0-.07.08-.28.15-.57.23-.85a.29.29,0,0,0,0-.09l.09-.31L18,58.5a.24.24,0,0,0,0-.08s0,0,0-.06.05-.18.08-.26.11-.38.17-.57.18-.59.28-.88l.3-.9c.06-.18.12-.36.19-.53a2.09,2.09,0,0,1,.08-.23c.12-.34.25-.68.38-1s.23-.59.34-.88h0c.09-.24.19-.47.28-.7l.3-.69.12-.26c.16-.38.33-.75.51-1.12s.43-.91.66-1.36c.16-.29.3-.59.46-.88l.06-.12.27-.5c0-.1.11-.2.17-.3a47.16,47.16,0,0,0,20.49,57Z"/><path class="cls-2" d="M43.19,104.12A53.57,53.57,0,0,1,23.35,91.53c-.29-.29-.58-.58-.86-.88-.57-.6-1.13-1.21-1.67-1.83s-1.07-1.26-1.58-1.9l-.76-1c-.25-.33-.5-.66-.74-1s-.48-.67-.71-1c-.33-1.6-.58-3.2-.76-4.79,0-.19,0-.4-.06-.6s0-.26,0-.39l0-.37c0-.19,0-.39-.05-.58s0-.23,0-.34,0-.43,0-.64a1,1,0,0,1,0-.17l0-.15v-.06c0-.16,0-.31,0-.46,0-1.06-.05-2.11,0-3.16v-.38c0-.07,0-.13,0-.2,0-.34,0-.69,0-1s0-.67.06-1v-.07c.05-.71.12-1.42.19-2.12a.49.49,0,0,0,0-.12c0-.27.07-.55.1-.83s.05-.31.07-.47,0-.13,0-.19l.09-.62a.2.2,0,0,0,0-.07s0-.07,0-.1a.22.22,0,0,1,0-.08l0-.17a2.93,2.93,0,0,1,.05-.29c0-.15.05-.31.08-.46l0-.24a.43.43,0,0,0,0-.11.11.11,0,0,0,0-.05,1.16,1.16,0,0,0,0-.18c.05-.25.09-.51.15-.77l0-.15c.05-.25.1-.5.16-.74s.1-.5.16-.74h0a1.46,1.46,0,0,0,.05-.2c.05-.23.11-.45.17-.68,0,0,0,0,0-.07.08-.28.15-.57.23-.85a.29.29,0,0,0,0-.09l.09-.31L18,58.5a.24.24,0,0,0,0-.08s0,0,0-.06.05-.18.08-.26.11-.38.17-.57.18-.59.28-.88l.3-.9c.06-.18.12-.36.19-.53a2.09,2.09,0,0,1,.08-.23c.12-.34.25-.68.38-1s.23-.59.34-.88h0c.09-.24.19-.47.28-.7l.3-.69.12-.26c.16-.38.33-.75.51-1.12s.43-.91.66-1.36c.16-.29.3-.59.46-.88l.06-.12.27-.5c0-.1.11-.2.17-.3a47.16,47.16,0,0,0,20.49,57Z"/><path class="cls-3" d="M43.19,104.12A53.57,53.57,0,0,1,23.35,91.53c-.29-.29-.58-.58-.86-.88-.57-.6-1.13-1.21-1.67-1.83s-1.07-1.26-1.58-1.9l-.76-1c-.25-.33-.5-.66-.74-1s-.48-.67-.71-1c-.33-1.6-.58-3.2-.76-4.79,0-.19,0-.4-.06-.6s0-.26,0-.39l0-.37c0-.19,0-.39-.05-.58s0-.23,0-.34,0-.43,0-.64a1,1,0,0,1,0-.17l0-.15v-.06c0-.16,0-.31,0-.46,0-1.06-.05-2.11,0-3.16v-.38c0-.07,0-.13,0-.2,0-.34,0-.69,0-1s0-.67.06-1v-.07c.05-.71.12-1.42.19-2.12a.49.49,0,0,0,0-.12c0-.27.07-.55.1-.83s.05-.31.07-.47,0-.13,0-.19l.09-.62a.2.2,0,0,0,0-.07s0-.07,0-.1a.22.22,0,0,1,0-.08l0-.17a2.93,2.93,0,0,1,.05-.29c0-.15.05-.31.08-.46l0-.24a.43.43,0,0,0,0-.11.11.11,0,0,0,0-.05,1.16,1.16,0,0,0,0-.18c.05-.25.09-.51.15-.77l0-.15c.05-.25.1-.5.16-.74s.1-.5.16-.74h0a1.46,1.46,0,0,0,.05-.2c.05-.23.11-.45.17-.68,0,0,0,0,0-.07.08-.28.15-.57.23-.85a.29.29,0,0,0,0-.09l.09-.31L18,58.5a.24.24,0,0,0,0-.08s0,0,0-.06.05-.18.08-.26.11-.38.17-.57.18-.59.28-.88l.3-.9c.06-.18.12-.36.19-.53a2.09,2.09,0,0,1,.08-.23c.12-.34.25-.68.38-1s.23-.59.34-.88h0c.09-.24.19-.47.28-.7l.3-.69.12-.26c.16-.38.33-.75.51-1.12s.43-.91.66-1.36c.16-.29.3-.59.46-.88l.06-.12.27-.5c0-.1.11-.2.17-.3a47.16,47.16,0,0,0,20.49,57Z"/><path class="cls-1" d="M124.67,32.12A53.4,53.4,0,0,0,92.27,9.86a53.67,53.67,0,0,1,21.56,33,53.68,53.68,0,0,1-.62,61.48A53.62,53.62,0,0,0,124.67,32.12Z"/><path class="cls-1" d="M113.83,42.9c-.47-.7-1-1.38-1.47-2-.25-.33-.51-.67-.77-1-.78-1-1.59-1.94-2.44-2.86-.28-.31-.56-.61-.85-.91l-.87-.89-.85-.82-.13-.12c-.23-.22-.45-.43-.68-.63l-.23-.21c-.59-.53-1.19-1.05-1.8-1.55l-1-.78-1-.75-1-.73-.19-.13c-.21-.16-.42-.3-.63-.45l-.19-.13c-.34-.23-.68-.46-1-.68l-1.05-.66-.54-.33a3.37,3.37,0,0,0-.32-.19h0A46.82,46.82,0,0,0,73.36,16.76a51.43,51.43,0,0,0-8.83-2.64q-.77-.16-1.56-.3c-.78-.14-1.57-.26-2.36-.36h0c-.79-.11-1.59-.19-2.39-.26l0,0,.51-.22.5-.22.92-.38.15-.06,0,0,1-.38.83-.31.47-.16.1,0,.32-.11.43-.14.32-.1.65-.21.42-.12c.28-.09.55-.17.83-.24l.52-.14c.34-.1.68-.19,1-.27l.58-.14.46-.11.7-.15.2-.05.47-.09.82-.16L71,9.27l.82-.14L72.5,9l.67-.09.31,0,.35-.05h.08l.68-.07.7-.07L76,8.64c.47,0,.93-.07,1.4-.09.7,0,1.39-.06,2.09-.07h1.46l.75,0,.78,0,.76,0h0l.71,0h0l.49,0,.7.06.32,0,.32,0,.71.07.5.06.66.1h.08c.2,0,.4.06.59.09l.54.08H89l.78.14c.2,0,.39.06.59.11h0l.39.08h0l.69.15.75.16a54,54,0,0,1,15.8,17.56c.62,1.1,1.2,2.22,1.74,3.37s1,2.31,1.5,3.5A53.1,53.1,0,0,1,113.83,42.9Z"/><path class="cls-1" d="M113.83,42.9c-.47-.7-1-1.38-1.47-2-.25-.33-.51-.67-.77-1-.78-1-1.59-1.94-2.44-2.86-.28-.31-.56-.61-.85-.91l-.87-.89-.85-.82-.13-.12c-.23-.22-.45-.43-.68-.63l-.23-.21c-.59-.53-1.19-1.05-1.8-1.55l-1-.78-1-.75-1-.73-.19-.13c-.21-.16-.42-.3-.63-.45l-.19-.13c-.34-.23-.68-.46-1-.68l-1.05-.66-.54-.33a3.37,3.37,0,0,0-.32-.19h0A46.82,46.82,0,0,0,73.36,16.76a51.43,51.43,0,0,0-8.83-2.64q-.77-.16-1.56-.3c-.78-.14-1.57-.26-2.36-.36h0c-.79-.11-1.59-.19-2.39-.26l0,0,.51-.22.5-.22.92-.38.15-.06,0,0,1-.38.83-.31.47-.16.1,0,.32-.11.43-.14.32-.1.65-.21.42-.12c.28-.09.55-.17.83-.24l.52-.14c.34-.1.68-.19,1-.27l.58-.14.46-.11.7-.15.2-.05.47-.09.82-.16L71,9.27l.82-.14L72.5,9l.67-.09.31,0,.35-.05h.08l.68-.07.7-.07L76,8.64c.47,0,.93-.07,1.4-.09.7,0,1.39-.06,2.09-.07h1.46l.75,0,.78,0,.76,0h0l.71,0h0l.49,0,.7.06.32,0,.32,0,.71.07.5.06.66.1h.08c.2,0,.4.06.59.09l.54.08H89l.78.14c.2,0,.39.06.59.11h0l.39.08h0l.69.15.75.16a54,54,0,0,1,15.8,17.56c.62,1.1,1.2,2.22,1.74,3.37s1,2.31,1.5,3.5A53.1,53.1,0,0,1,113.83,42.9Z"/><path class="cls-1" d="M73.36,16.76a47.19,47.19,0,0,0-28.54,5.06,54.28,54.28,0,0,1,10.34-7.13c.5-.27,1-.52,1.51-.77s1-.49,1.52-.72h0c.8.07,1.6.15,2.39.26h0c.79.1,1.58.22,2.36.36q.8.13,1.56.3A51.43,51.43,0,0,1,73.36,16.76Z"/><path class="cls-2" d="M73.36,16.76a47.19,47.19,0,0,0-28.54,5.06,54.28,54.28,0,0,1,10.34-7.13c.5-.27,1-.52,1.51-.77s1-.49,1.52-.72h0c.8.07,1.6.15,2.39.26h0c.79.1,1.58.22,2.36.36q.8.13,1.56.3A51.43,51.43,0,0,1,73.36,16.76Z"/><path class="cls-1" d="M73.36,16.76a47.19,47.19,0,0,0-28.54,5.06,54.28,54.28,0,0,1,10.34-7.13c.5-.27,1-.52,1.51-.77s1-.49,1.52-.72h0c.8.07,1.6.15,2.39.26h0c.79.1,1.58.22,2.36.36q.8.13,1.56.3A51.43,51.43,0,0,1,73.36,16.76Z"/><path class="cls-3" d="M123.21,73.87v.41c0,.17,0,.33,0,.5s0,.37,0,.55,0,.15,0,.23v0c0,.48-.06,1-.1,1.47v.14a.08.08,0,0,1,0,0c0,.19,0,.38,0,.57,0,0,0,0,0,0a.2.2,0,0,1,0,.07c0,.24,0,.47-.06.71s0,.51-.08.76,0,.41-.08.6a1.5,1.5,0,0,0,0,.2c0,.15,0,.3-.07.45s0,.41-.09.62,0,.32-.07.49,0,0,0,.06a.15.15,0,0,0,0,.07,1.62,1.62,0,0,1,0,.19c0,.19-.06.39-.1.59s-.09.52-.14.77c0,.08,0,.15,0,.22-.05.29-.12.59-.18.88,0,.12,0,.23-.08.35s-.11.47-.16.7-.11.47-.17.7l-.18.69c-.06.24-.13.47-.19.7-.19.66-.39,1.33-.6,2s-.44,1.31-.68,2h0c-.11.32-.24.64-.36,1l-.38,1h0c-.26.63-.53,1.26-.82,1.89s-.58,1.25-.89,1.86c-.14.29-.29.57-.44.85l-.26.49-.45.81c-.18.34-.37.66-.57,1l0,.06c-.26.44-.52.87-.79,1.3s-.56.87-.85,1.3l-.43.63-.45.64c-1,.76-2,1.49-3,2.19a53.44,53.44,0,0,1-34.54,9,53.82,53.82,0,0,0,16.61-11.72,29.57,29.57,0,0,0,10.4,1.93,3.74,3.74,0,0,0,3.4-2.68,5.09,5.09,0,0,0-.71-4.8,42.35,42.35,0,0,1-2.75-4.09A47,47,0,0,0,114,63.42v-.1c0-.18.07-.37.1-.57s.09-.48.12-.72,0-.28.07-.43.08-.52.11-.78l.09-.75a.13.13,0,0,0,0-.06l.09-.76c0-.27,0-.53.07-.8s0-.52.07-.78v0c0-.26,0-.53,0-.79,0-.54.06-1.07.07-1.61,0-.27,0-.54,0-.81s0-.27,0-.41v-.4c0-1.12,0-2.23-.1-3.34s-.17-2.19-.31-3.28c-.08-.72-.19-1.44-.31-2.15,0-.32-.1-.64-.16-1s-.13-.68-.2-1l.22.33.19.27.28.44c.15.22.29.44.43.67s.11.16.16.24l.26.43.2.33c.11.19.23.38.34.58s.14.23.2.35.24.41.35.62l.29.52,0,.1.21.4.09.16.24.47.1.2c.11.21.21.42.31.63s.11.22.16.33.11.22.16.33l.24.52.06.12c.07.17.15.34.23.51l.11.26c.27.62.53,1.26.79,1.9.12.31.24.64.36,1,0,.12.09.25.14.38s.09.24.14.37,0,0,0,0h0l.12.35c0,.1.08.21.11.31s.17.49.25.74.15.5.23.75c.4,1.3.74,2.61,1,3.92A53.21,53.21,0,0,1,123.21,73.87Z"/><path class="cls-1" d="M123.21,73.87v.41c0,.17,0,.33,0,.5s0,.37,0,.55,0,.15,0,.23v0c0,.48-.06,1-.1,1.47v.14a.08.08,0,0,1,0,0c0,.19,0,.38,0,.57,0,0,0,0,0,0a.2.2,0,0,1,0,.07c0,.24,0,.47-.06.71s0,.51-.08.76,0,.41-.08.6a1.5,1.5,0,0,0,0,.2c0,.15,0,.3-.07.45s0,.41-.09.62,0,.32-.07.49,0,0,0,.06a.15.15,0,0,0,0,.07,1.62,1.62,0,0,1,0,.19c0,.19-.06.39-.1.59s-.09.52-.14.77c0,.08,0,.15,0,.22-.05.29-.12.59-.18.88,0,.12,0,.23-.08.35s-.11.47-.16.7-.11.47-.17.7l-.18.69c-.06.24-.13.47-.19.7-.19.66-.39,1.33-.6,2s-.44,1.31-.68,2h0c-.11.32-.24.64-.36,1l-.38,1h0c-.26.63-.53,1.26-.82,1.89s-.58,1.25-.89,1.86c-.14.29-.29.57-.44.85l-.26.49-.45.81c-.18.34-.37.66-.57,1l0,.06c-.26.44-.52.87-.79,1.3s-.56.87-.85,1.3l-.43.63-.45.64c-1,.76-2,1.49-3,2.19a53.44,53.44,0,0,1-34.54,9,53.82,53.82,0,0,0,16.61-11.72,29.57,29.57,0,0,0,10.4,1.93,3.74,3.74,0,0,0,3.4-2.68,5.09,5.09,0,0,0-.71-4.8,42.35,42.35,0,0,1-2.75-4.09A47,47,0,0,0,114,63.42v-.1c0-.18.07-.37.1-.57s.09-.48.12-.72,0-.28.07-.43.08-.52.11-.78l.09-.75a.13.13,0,0,0,0-.06l.09-.76c0-.27,0-.53.07-.8s0-.52.07-.78v0c0-.26,0-.53,0-.79,0-.54.06-1.07.07-1.61,0-.27,0-.54,0-.81s0-.27,0-.41v-.4c0-1.12,0-2.23-.1-3.34s-.17-2.19-.31-3.28c-.08-.72-.19-1.44-.31-2.15,0-.32-.1-.64-.16-1s-.13-.68-.2-1l.22.33.19.27.28.44c.15.22.29.44.43.67s.11.16.16.24l.26.43.2.33c.11.19.23.38.34.58s.14.23.2.35.24.41.35.62l.29.52,0,.1.21.4.09.16.24.47.1.2c.11.21.21.42.31.63s.11.22.16.33.11.22.16.33l.24.52.06.12c.07.17.15.34.23.51l.11.26c.27.62.53,1.26.79,1.9.12.31.24.64.36,1,0,.12.09.25.14.38s.09.24.14.37,0,0,0,0h0l.12.35c0,.1.08.21.11.31s.17.49.25.74.15.5.23.75c.4,1.3.74,2.61,1,3.92A53.21,53.21,0,0,1,123.21,73.87Z"/><path class="cls-1" d="M114.91,53.63V54c0,.14,0,.27,0,.41s0,.54,0,.81c0,.54,0,1.07-.07,1.61,0,.26,0,.53,0,.79v0c0,.26,0,.52-.07.78s0,.53-.07.8l-.09.76a.13.13,0,0,1,0,.06l-.09.75c0,.26-.07.52-.11.78s0,.29-.07.43-.07.48-.12.72-.06.39-.1.57A47,47,0,0,0,96.85,27h0l.32.2.54.33,1.05.66c.35.22.69.45,1,.68L100,29c.21.15.42.29.63.45l.19.13,1,.73,1,.75,1,.78c.61.5,1.21,1,1.8,1.55l.23.21c.23.2.45.41.68.63l.13.12.85.82.87.89c.29.3.57.6.85.91.85.92,1.66,1.87,2.44,2.86.26.32.52.66.77,1,.51.67,1,1.35,1.47,2,.07.33.14.67.2,1s.11.63.16,1c.12.71.23,1.43.31,2.15.14,1.09.24,2.18.31,3.28S114.91,52.5,114.91,53.63Z"/><path class="cls-3" d="M114.91,53.63V54c0,.14,0,.27,0,.41s0,.54,0,.81c0,.54,0,1.07-.07,1.61,0,.26,0,.53,0,.79v0c0,.26,0,.52-.07.78s0,.53-.07.8l-.09.76a.13.13,0,0,1,0,.06l-.09.75c0,.26-.07.52-.11.78s0,.29-.07.43-.07.48-.12.72-.06.39-.1.57A47,47,0,0,0,96.85,27h0l.32.2.54.33,1.05.66c.35.22.69.45,1,.68L100,29c.21.15.42.29.63.45l.19.13,1,.73,1,.75,1,.78c.61.5,1.21,1,1.8,1.55l.23.21c.23.2.45.41.68.63l.13.12.85.82.87.89c.29.3.57.6.85.91.85.92,1.66,1.87,2.44,2.86.26.32.52.66.77,1,.51.67,1,1.35,1.47,2,.07.33.14.67.2,1s.11.63.16,1c.12.71.23,1.43.31,2.15.14,1.09.24,2.18.31,3.28S114.91,52.5,114.91,53.63Z"/><path class="cls-1" d="M114.91,53.63V54c0,.14,0,.27,0,.41s0,.54,0,.81c0,.54,0,1.07-.07,1.61,0,.26,0,.53,0,.79v0c0,.26,0,.52-.07.78s0,.53-.07.8l-.09.76a.13.13,0,0,1,0,.06l-.09.75c0,.26-.07.52-.11.78s0,.29-.07.43-.07.48-.12.72-.06.39-.1.57A47,47,0,0,0,96.85,27h0l.32.2.54.33,1.05.66c.35.22.69.45,1,.68L100,29c.21.15.42.29.63.45l.19.13,1,.73,1,.75,1,.78c.61.5,1.21,1,1.8,1.55l.23.21c.23.2.45.41.68.63l.13.12.85.82.87.89c.29.3.57.6.85.91.85.92,1.66,1.87,2.44,2.86.26.32.52.66.77,1,.51.67,1,1.35,1.47,2,.07.33.14.67.2,1s.11.63.16,1c.12.71.23,1.43.31,2.15.14,1.09.24,2.18.31,3.28S114.91,52.5,114.91,53.63Z"/><path class="cls-2" d="M92.27,103.82a53.82,53.82,0,0,1-16.61,11.72,53.78,53.78,0,0,1-22.23-7,47.28,47.28,0,0,0,38.18-5Z"/><path class="cls-3" d="M92.27,103.82a53.82,53.82,0,0,1-16.61,11.72,53.78,53.78,0,0,1-22.23-7,47.28,47.28,0,0,0,38.18-5Z"/><path class="cls-1" d="M92.27,103.82a53.82,53.82,0,0,1-16.61,11.72,53.78,53.78,0,0,1-22.23-7,47.28,47.28,0,0,0,38.18-5Z"/><path class="cls-4" d="M97.34,52.38c-4.78,0-8.64,4.63-8.64,10.36s3.86,10.35,8.64,10.35S106,68.47,106,62.74,102.11,52.38,97.34,52.38Zm-30.25,0c-4.77,0-8.63,4.63-8.63,10.36s3.86,10.35,8.63,10.35,8.64-4.62,8.64-10.35S71.87,52.38,67.09,52.38Zm-30.24,0c-4.78,0-8.64,4.63-8.64,10.36s3.86,10.35,8.64,10.35,8.64-4.62,8.64-10.35S41.63,52.38,36.85,52.38Zm0,0c-4.78,0-8.64,4.63-8.64,10.36s3.86,10.35,8.64,10.35,8.64-4.62,8.64-10.35S41.63,52.38,36.85,52.38Zm30.24,0c-4.77,0-8.63,4.63-8.63,10.36s3.86,10.35,8.63,10.35,8.64-4.62,8.64-10.35S71.87,52.38,67.09,52.38Zm30.25,0c-4.78,0-8.64,4.63-8.64,10.36s3.86,10.35,8.64,10.35S106,68.47,106,62.74,102.11,52.38,97.34,52.38Zm-60.49,0c-4.78,0-8.64,4.63-8.64,10.36s3.86,10.35,8.64,10.35,8.64-4.62,8.64-10.35S41.63,52.38,36.85,52.38Zm30.24,0c-4.77,0-8.63,4.63-8.63,10.36s3.86,10.35,8.63,10.35,8.64-4.62,8.64-10.35S71.87,52.38,67.09,52.38Zm30.25,0c-4.78,0-8.64,4.63-8.64,10.36s3.86,10.35,8.64,10.35S106,68.47,106,62.74,102.11,52.38,97.34,52.38Z"/><path class="cls-4" d="M45.49,62.74c0,5.73-3.86,10.35-8.64,10.35s-8.64-4.62-8.64-10.35,3.86-10.36,8.64-10.36S45.49,57,45.49,62.74Z"/><path class="cls-4" d="M75.73,62.74c0,5.73-3.86,10.35-8.64,10.35s-8.63-4.62-8.63-10.35,3.86-10.36,8.63-10.36S75.73,57,75.73,62.74Z"/><path class="cls-5" d="M114,63.32A47,47,0,0,0,96.85,27h0A47.12,47.12,0,0,0,22.7,47.16h0a47.16,47.16,0,0,0,20.49,57,47.17,47.17,0,0,0,48.42-.56l.66.26a29.57,29.57,0,0,0,10.4,1.93,3.74,3.74,0,0,0,3.4-2.68,5.09,5.09,0,0,0-.71-4.8,42.35,42.35,0,0,1-2.75-4.09A47,47,0,0,0,114,63.42ZM36.85,73.09c-4.78,0-8.64-4.62-8.64-10.35s3.86-10.36,8.64-10.36S45.49,57,45.49,62.74,41.63,73.09,36.85,73.09Zm30.24,0c-4.77,0-8.63-4.62-8.63-10.35s3.86-10.36,8.63-10.36S75.73,57,75.73,62.74,71.87,73.09,67.09,73.09Zm30.25,0c-4.78,0-8.64-4.62-8.64-10.35s3.86-10.36,8.64-10.36S106,57,106,62.74,102.11,73.09,97.34,73.09Z"/><path class="cls-4" d="M106,62.74c0,5.73-3.86,10.35-8.63,10.35S88.7,68.47,88.7,62.74s3.86-10.36,8.64-10.36S106,57,106,62.74Z"/></g></g></svg>