<svg xmlns="http://www.w3.org/2000/svg" viewBox="0 0 369.36 126.85"><defs><style>.cls-1,.cls-4{fill:#7526c3;}.cls-1,.cls-2,.cls-3{opacity:0.6;}.cls-2{fill:#e163e5;}.cls-3{fill:#ca00e0;}.cls-5{fill:#fff;}</style></defs><g id="Layer_2" data-name="Layer 2"><g id="Layer_1-2" data-name="Layer 1"><path class="cls-1" d="M72.89,60.2Z"/><path class="cls-1" d="M72.89,60.2Z"/><path class="cls-1" d="M53.63,13c1.54,0,3.06.07,4.57.2A53.48,53.48,0,0,1,92.27,9.86,53.65,53.65,0,0,0,11.66,33.24,53.56,53.56,0,0,1,53.63,13Z"/><path class="cls-2" d="M18.29,88.89c-.51-1.65-.92-3.31-1.26-5a53.71,53.71,0,0,1-5.37-50.69,53.64,53.64,0,0,0,29.8,85.63A53.39,53.39,0,0,1,18.29,88.89Z"/><path class="cls-1" d="M58.19,13.2c-.51.23-1,.47-1.52.72s-1,.5-1.51.77a54.28,54.28,0,0,0-10.34,7.13A47.23,47.23,0,0,0,22.7,47.16h0c-.06.1-.12.2-.17.3l-.27.5-.06.12c-.16.29-.31.59-.46.88-.23.45-.45.9-.66,1.36s-.35.74-.52,1.12c0,.08-.08.17-.11.26l-.3.69c-.09.23-.19.46-.29.7s-.23.58-.34.88-.26.67-.38,1a2.09,2.09,0,0,0-.08.23c-.07.17-.13.35-.19.53s-.21.6-.3.9-.19.59-.28.88-.12.38-.17.57-.05.17-.08.26a1,1,0,0,1,0,.14l-.09.33-.09.31s0,.06,0,.09c-.08.28-.15.57-.23.85,0,0,0,.05,0,.07-.06.23-.12.45-.17.68l-.05.2h0c-.06.24-.11.49-.17.74l-.15.74,0,.15c-.06.26-.11.52-.15.77,0,.06,0,.12,0,.18l0,.16a2,2,0,0,1,0,.24c0,.15-.05.31-.08.46s0,.19,0,.29l0,.17a.22.22,0,0,0,0,.08.3.3,0,0,0,0,.1.2.2,0,0,1,0,.07l-.09.62c0,.06,0,.13,0,.19s-.05.32-.07.47-.07.56-.1.83a.49.49,0,0,1,0,.12c-.08.7-.14,1.41-.19,2.12v.07c0,.33,0,.66-.06,1s0,.69,0,1c0,.19,0,.39,0,.58,0,1,0,2.1,0,3.16,0,.15,0,.3,0,.45v.22c0,.06,0,.11,0,.17l0,.64,0,.34c0,.19,0,.39.05.58l0,.37c0,.13,0,.26,0,.39s0,.41.06.6c.18,1.59.43,3.19.76,4.79a53.66,53.66,0,0,1-5.36-50.69A53.52,53.52,0,0,1,53.63,13C55.17,13,56.69,13.07,58.19,13.2Z"/><path class="cls-2" d="M58.19,13.2c-.51.23-1,.47-1.52.72s-1,.5-1.51.77a54.28,54.28,0,0,0-10.34,7.13A47.23,47.23,0,0,0,22.7,47.16h0c-.06.1-.12.2-.17.3l-.27.5-.06.12c-.16.29-.31.59-.46.88-.23.45-.45.9-.66,1.36s-.35.74-.52,1.12c0,.08-.08.17-.11.26l-.3.69c-.09.23-.19.46-.29.7s-.23.58-.34.88-.26.67-.38,1a2.09,2.09,0,0,0-.08.23c-.07.17-.13.35-.19.53s-.21.6-.3.9-.19.59-.28.88-.12.38-.17.57-.05.17-.08.26a1,1,0,0,1,0,.14l-.09.33-.09.31s0,.06,0,.09c-.08.28-.15.57-.23.85,0,0,0,.05,0,.07-.06.23-.12.45-.17.68l-.05.2h0c-.06.24-.11.49-.17.74l-.15.74,0,.15c-.06.26-.11.52-.15.77,0,.06,0,.12,0,.18l0,.16a2,2,0,0,1,0,.24c0,.15-.05.31-.08.46s0,.19,0,.29l0,.17a.22.22,0,0,0,0,.08.3.3,0,0,0,0,.1.2.2,0,0,1,0,.07l-.09.62c0,.06,0,.13,0,.19s-.05.32-.07.47-.07.56-.1.83a.49.49,0,0,1,0,.12c-.08.7-.14,1.41-.19,2.12v.07c0,.33,0,.66-.06,1s0,.69,0,1c0,.19,0,.39,0,.58,0,1,0,2.1,0,3.16,0,.15,0,.3,0,.45v.22c0,.06,0,.11,0,.17l0,.64,0,.34c0,.19,0,.39.05.58l0,.37c0,.13,0,.26,0,.39s0,.41.06.6c.18,1.59.43,3.19.76,4.79a53.66,53.66,0,0,1-5.36-50.69A53.52,53.52,0,0,1,53.63,13C55.17,13,56.69,13.07,58.19,13.2Z"/><path class="cls-3" d="M75.66,115.54a53.84,53.84,0,0,1-34.2,3.33,53.6,53.6,0,0,0,71.75-14.49c-1,.76-2,1.49-3,2.19A53.38,53.38,0,0,1,75.66,115.54Z"/><path class="cls-2" d="M75.66,115.54a53.84,53.84,0,0,1-34.2,3.33h0l-.57-.37,0,0-.67-.43-.89-.59c-.25-.17-.51-.35-.76-.54l-.11-.07-.76-.55a1.3,1.3,0,0,1-.23-.18l-.73-.55-.13-.1c-.26-.2-.53-.41-.79-.63l-.09-.06-.73-.61-.54-.47a1,1,0,0,1-.11-.1l-.45-.4-.39-.34-.09-.09h0l-.1-.09,0,0-.21-.2-.15-.13-.49-.47-.41-.4-.66-.66-.6-.62c-.13-.13-.25-.26-.37-.4l-.12-.12-.55-.6-.79-.9-.72-.86-.05,0-.75-.94-.73-1c-.24-.32-.48-.64-.71-1s-.47-.66-.69-1-.45-.67-.67-1l-.65-1-.57-.95a0,0,0,0,0,0,0c0-.07-.09-.14-.13-.22a.41.41,0,0,0-.05-.09l-.33-.59-.06-.1-.09-.16c-.22-.39-.43-.79-.64-1.19,0,0,0,0,0,0-.13-.24-.25-.49-.37-.73l-.2-.39-.28-.6-.21-.45c-.12-.25-.23-.5-.34-.75l-.3-.68c-.23-.52-.44-1-.65-1.58-.1-.25-.19-.5-.28-.75,0,0,0,0,0-.07l-.24-.65L19,91A.14.14,0,0,1,19,91l-.09-.23a.14.14,0,0,0,0-.07c-.07-.19-.13-.37-.19-.57a.69.69,0,0,1-.05-.13c-.1-.3-.2-.61-.29-.91,0-.06,0-.12-.05-.17-.07-.21-.13-.42-.18-.62s-.12-.39-.17-.58,0-.1,0-.14-.09-.35-.14-.52-.11-.41-.16-.62l-.15-.62-.15-.62-.09-.41-.15-.69,0-.14c.23.34.47.68.71,1s.48.67.74,1l.76,1c.51.64,1,1.28,1.58,1.9s1.1,1.23,1.66,1.83l.87.88a53.61,53.61,0,0,0,19.83,12.59,47,47,0,0,0,10.24,4.45A53.87,53.87,0,0,0,75.66,115.54Z"/><path class="cls-3" d="M75.66,115.54a53.84,53.84,0,0,1-34.2,3.33h0l-.57-.37,0,0-.67-.43-.89-.59c-.25-.17-.51-.35-.76-.54l-.11-.07-.76-.55a1.3,1.3,0,0,1-.23-.18l-.73-.55-.13-.1c-.26-.2-.53-.41-.79-.63l-.09-.06-.73-.61-.54-.47a1,1,0,0,1-.11-.1l-.45-.4-.39-.34-.09-.09h0l-.1-.09,0,0-.21-.2-.15-.13-.49-.47-.41-.4-.66-.66-.6-.62c-.13-.13-.25-.26-.37-.4l-.12-.12-.55-.6-.79-.9-.72-.86-.05,0-.75-.94-.73-1c-.24-.32-.48-.64-.71-1s-.47-.66-.69-1-.45-.67-.67-1l-.65-1-.57-.95a0,0,0,0,0,0,0c0-.07-.09-.14-.13-.22a.41.41,0,0,0-.05-.09l-.33-.59-.06-.1-.09-.16c-.22-.39-.43-.79-.64-1.19,0,0,0,0,0,0-.13-.24-.25-.49-.37-.73l-.2-.39-.28-.6-.21-.45c-.12-.25-.23-.5-.34-.75l-.3-.68c-.23-.52-.44-1-.65-1.58-.1-.25-.19-.5-.28-.75,0,0,0,0,0-.07l-.24-.65L19,91A.14.14,0,0,1,19,91l-.09-.23a.14.14,0,0,0,0-.07c-.07-.19-.13-.37-.19-.57a.69.69,0,0,1-.05-.13c-.1-.3-.2-.61-.29-.91,0-.06,0-.12-.05-.17-.07-.21-.13-.42-.18-.62s-.12-.39-.17-.58,0-.1,0-.14-.09-.35-.14-.52-.11-.41-.16-.62l-.15-.62-.15-.62-.09-.41-.15-.69,0-.14c.23.34.47.68.71,1s.48.67.74,1l.76,1c.51.64,1,1.28,1.58,1.9s1.1,1.23,1.66,1.83l.87.88a53.61,53.61,0,0,0,19.83,12.59,47,47,0,0,0,10.24,4.45A53.87,53.87,0,0,0,75.66,115.54Z"/><path class="cls-1" d="M43.18,104.12A53.61,53.61,0,0,1,23.35,91.53l-.87-.88c-.56-.6-1.12-1.21-1.66-1.83s-1.07-1.26-1.58-1.9l-.76-1c-.25-.33-.5-.66-.74-1s-.48-.67-.71-1c-.33-1.6-.58-3.2-.76-4.79,0-.19-.05-.4-.06-.6s0-.26,0-.39l0-.37c0-.19,0-.39-.05-.58l0-.34,0-.64c0-.06,0-.11,0-.17v-.22c0-.15,0-.3,0-.45,0-1.06-.05-2.11,0-3.16v-.38c0-.07,0-.13,0-.2,0-.34,0-.69,0-1s0-.67.06-1v-.07c.05-.71.11-1.42.19-2.12a.49.49,0,0,0,0-.12c0-.27.07-.55.1-.83s0-.32.07-.47,0-.13,0-.19l.09-.62a.2.2,0,0,0,0-.07.3.3,0,0,1,0-.1.22.22,0,0,1,0-.08l0-.17c0-.1,0-.19,0-.29s.06-.31.08-.46a2,2,0,0,0,0-.24s0-.07,0-.11a.11.11,0,0,0,0-.05c0-.06,0-.12,0-.18,0-.25.09-.51.15-.77l0-.15.15-.74c.06-.25.11-.5.17-.74h0l.05-.2c.05-.23.11-.45.17-.68,0,0,0,0,0-.07.08-.28.15-.57.23-.85,0,0,0-.06,0-.09l.09-.31L18,58.5s0,0,0-.08,0,0,0-.06.05-.18.08-.26.11-.38.17-.57.18-.59.28-.88.19-.6.3-.9.12-.36.19-.53a2.09,2.09,0,0,1,.08-.23c.12-.34.24-.68.38-1s.23-.59.34-.88.2-.47.29-.7l.3-.69c0-.09.08-.18.11-.26.17-.38.34-.75.52-1.12s.43-.91.66-1.36c.15-.29.3-.59.46-.88l.06-.12.27-.5c0-.1.11-.2.17-.3a47.17,47.17,0,0,0,20.48,57Z"/><path class="cls-2" d="M43.18,104.12A53.61,53.61,0,0,1,23.35,91.53l-.87-.88c-.56-.6-1.12-1.21-1.66-1.83s-1.07-1.26-1.58-1.9l-.76-1c-.25-.33-.5-.66-.74-1s-.48-.67-.71-1c-.33-1.6-.58-3.2-.76-4.79,0-.19-.05-.4-.06-.6s0-.26,0-.39l0-.37c0-.19,0-.39-.05-.58l0-.34,0-.64c0-.06,0-.11,0-.17v-.22c0-.15,0-.3,0-.45,0-1.06-.05-2.11,0-3.16v-.38c0-.07,0-.13,0-.2,0-.34,0-.69,0-1s0-.67.06-1v-.07c.05-.71.11-1.42.19-2.12a.49.49,0,0,0,0-.12c0-.27.07-.55.1-.83s0-.32.07-.47,0-.13,0-.19l.09-.62a.2.2,0,0,0,0-.07.3.3,0,0,1,0-.1.22.22,0,0,1,0-.08l0-.17c0-.1,0-.19,0-.29s.06-.31.08-.46a2,2,0,0,0,0-.24s0-.07,0-.11a.11.11,0,0,0,0-.05c0-.06,0-.12,0-.18,0-.25.09-.51.15-.77l0-.15.15-.74c.06-.25.11-.5.17-.74h0l.05-.2c.05-.23.11-.45.17-.68,0,0,0,0,0-.07.08-.28.15-.57.23-.85,0,0,0-.06,0-.09l.09-.31L18,58.5s0,0,0-.08,0,0,0-.06.05-.18.08-.26.11-.38.17-.57.18-.59.28-.88.19-.6.3-.9.12-.36.19-.53a2.09,2.09,0,0,1,.08-.23c.12-.34.24-.68.38-1s.23-.59.34-.88.2-.47.29-.7l.3-.69c0-.09.08-.18.11-.26.17-.38.34-.75.52-1.12s.43-.91.66-1.36c.15-.29.3-.59.46-.88l.06-.12.27-.5c0-.1.11-.2.17-.3a47.17,47.17,0,0,0,20.48,57Z"/><path class="cls-3" d="M43.18,104.12A53.61,53.61,0,0,1,23.35,91.53l-.87-.88c-.56-.6-1.12-1.21-1.66-1.83s-1.07-1.26-1.58-1.9l-.76-1c-.25-.33-.5-.66-.74-1s-.48-.67-.71-1c-.33-1.6-.58-3.2-.76-4.79,0-.19-.05-.4-.06-.6s0-.26,0-.39l0-.37c0-.19,0-.39-.05-.58l0-.34,0-.64c0-.06,0-.11,0-.17v-.22c0-.15,0-.3,0-.45,0-1.06-.05-2.11,0-3.16v-.38c0-.07,0-.13,0-.2,0-.34,0-.69,0-1s0-.67.06-1v-.07c.05-.71.11-1.42.19-2.12a.49.49,0,0,0,0-.12c0-.27.07-.55.1-.83s0-.32.07-.47,0-.13,0-.19l.09-.62a.2.2,0,0,0,0-.07.3.3,0,0,1,0-.1.22.22,0,0,1,0-.08l0-.17c0-.1,0-.19,0-.29s.06-.31.08-.46a2,2,0,0,0,0-.24s0-.07,0-.11a.11.11,0,0,0,0-.05c0-.06,0-.12,0-.18,0-.25.09-.51.15-.77l0-.15.15-.74c.06-.25.11-.5.17-.74h0l.05-.2c.05-.23.11-.45.17-.68,0,0,0,0,0-.07.08-.28.15-.57.23-.85,0,0,0-.06,0-.09l.09-.31L18,58.5s0,0,0-.08,0,0,0-.06.05-.18.08-.26.11-.38.17-.57.18-.59.28-.88.19-.6.3-.9.12-.36.19-.53a2.09,2.09,0,0,1,.08-.23c.12-.34.24-.68.38-1s.23-.59.34-.88.2-.47.29-.7l.3-.69c0-.09.08-.18.11-.26.17-.38.34-.75.52-1.12s.43-.91.66-1.36c.15-.29.3-.59.46-.88l.06-.12.27-.5c0-.1.11-.2.17-.3a47.17,47.17,0,0,0,20.48,57Z"/><path class="cls-1" d="M124.67,32.12A53.4,53.4,0,0,0,92.27,9.86a53.67,53.67,0,0,1,21.56,33,53.68,53.68,0,0,1-.62,61.48A53.62,53.62,0,0,0,124.67,32.12Z"/><path class="cls-1" d="M113.83,42.9c-.47-.7-1-1.38-1.47-2-.25-.33-.51-.67-.77-1-.78-1-1.6-1.94-2.44-2.86-.28-.31-.57-.61-.85-.91s-.58-.6-.88-.89l-.84-.82-.13-.12c-.23-.22-.45-.43-.68-.63l-.23-.21c-.59-.53-1.19-1.05-1.8-1.55l-1-.78-1-.75-1-.73-.19-.13c-.21-.16-.42-.3-.63-.45l-.19-.13-1-.68-1.05-.66-.54-.33-.16-.1L96.84,27h0A46.88,46.88,0,0,0,86,20.32a46.35,46.35,0,0,0-12.59-3.56,51.43,51.43,0,0,0-8.83-2.64c-.51-.11-1-.21-1.56-.3-.78-.14-1.57-.26-2.36-.36h0c-.79-.11-1.59-.19-2.39-.26l0,0,.5-.22.51-.22.92-.38.14-.06.21-.08.84-.32.83-.31.47-.16.1,0,.32-.11.43-.14.32-.1.65-.21.42-.12c.28-.09.55-.17.83-.24l.51-.14c.34-.1.69-.19,1-.27l.51-.12.54-.13.7-.15.2-.05.46-.09.73-.14.1,0L71,9.27l.82-.14L72.5,9l.94-.13.39-.05h.08l.68-.07.7-.07L76,8.64c.47,0,.93-.07,1.4-.09.69,0,1.39-.06,2.09-.07h1.46l.77,0,.76,0,.76,0,.76,0,.48,0,.71.06.33,0,1,.11.55.06.66.1h.08a5.58,5.58,0,0,1,.59.09l.54.08H89l.78.14c.19,0,.39.06.59.11h0l.39.08h0l.69.15.75.16a54.21,54.21,0,0,1,9.28,8.36c.55.63,1.08,1.27,1.61,1.92a54,54,0,0,1,4.91,7.28c.62,1.1,1.19,2.21,1.74,3.36,0,0,0,0,0,0,.53,1.14,1,2.3,1.5,3.49,0,0,0,0,0,0,.3.79.59,1.59.86,2.4s.52,1.63.75,2.45.44,1.66.64,2.5Z"/><path class="cls-1" d="M113.83,42.9c-.47-.7-1-1.38-1.47-2-.25-.33-.51-.67-.77-1-.78-1-1.6-1.94-2.44-2.86-.28-.31-.57-.61-.85-.91s-.58-.6-.88-.89l-.84-.82-.13-.12c-.23-.22-.45-.43-.68-.63l-.23-.21c-.59-.53-1.19-1.05-1.8-1.55l-1-.78-1-.75-1-.73-.19-.13c-.21-.16-.42-.3-.63-.45l-.19-.13-1-.68-1.05-.66-.54-.33-.16-.1L96.84,27h0A46.88,46.88,0,0,0,86,20.32a46.35,46.35,0,0,0-12.59-3.56,51.43,51.43,0,0,0-8.83-2.64c-.51-.11-1-.21-1.56-.3-.78-.14-1.57-.26-2.36-.36h0c-.79-.11-1.59-.19-2.39-.26l0,0,.5-.22.51-.22.92-.38.14-.06.21-.08.84-.32.83-.31.47-.16.1,0,.32-.11.43-.14.32-.1.65-.21.42-.12c.28-.09.55-.17.83-.24l.51-.14c.34-.1.69-.19,1-.27l.51-.12.54-.13.7-.15.2-.05.46-.09.73-.14.1,0L71,9.27l.82-.14L72.5,9l.94-.13.39-.05h.08l.68-.07.7-.07L76,8.64c.47,0,.93-.07,1.4-.09.69,0,1.39-.06,2.09-.07h1.46l.77,0,.76,0,.76,0,.76,0,.48,0,.71.06.33,0,1,.11.55.06.66.1h.08a5.58,5.58,0,0,1,.59.09l.54.08H89l.78.14c.19,0,.39.06.59.11h0l.39.08h0l.69.15.75.16a54.21,54.21,0,0,1,9.28,8.36c.55.63,1.08,1.27,1.61,1.92a54,54,0,0,1,4.91,7.28c.62,1.1,1.19,2.21,1.74,3.36,0,0,0,0,0,0,.53,1.14,1,2.3,1.5,3.49,0,0,0,0,0,0,.3.79.59,1.59.86,2.4s.52,1.63.75,2.45.44,1.66.64,2.5Z"/><path class="cls-1" d="M73.36,16.76a47.19,47.19,0,0,0-28.54,5.06,54.28,54.28,0,0,1,10.34-7.13c.5-.27,1-.52,1.51-.77s1-.49,1.52-.72h0c.8.07,1.6.15,2.39.26h0c.79.1,1.58.22,2.36.36.52.09,1,.19,1.56.3A51.43,51.43,0,0,1,73.36,16.76Z"/><path class="cls-2" d="M73.36,16.76a47.19,47.19,0,0,0-28.54,5.06,54.28,54.28,0,0,1,10.34-7.13c.5-.27,1-.52,1.51-.77s1-.49,1.52-.72h0c.8.07,1.6.15,2.39.26h0c.79.1,1.58.22,2.36.36.52.09,1,.19,1.56.3A51.43,51.43,0,0,1,73.36,16.76Z"/><path class="cls-1" d="M73.36,16.76a47.19,47.19,0,0,0-28.54,5.06,54.28,54.28,0,0,1,10.34-7.13c.5-.27,1-.52,1.51-.77s1-.49,1.52-.72h0c.8.07,1.6.15,2.39.26h0c.79.1,1.58.22,2.36.36.52.09,1,.19,1.56.3A51.43,51.43,0,0,1,73.36,16.76Z"/><path class="cls-3" d="M123.21,73.87v.41c0,.17,0,.33,0,.5s0,.26,0,.39,0,.26,0,.39c0,.5,0,1-.09,1.52v0a.31.31,0,0,1,0,.1v0c0,.06,0,.11,0,.17s0,.27,0,.4a.41.41,0,0,1,0,.11l-.06.71-.09.76,0,.3c0,.1,0,.2,0,.3l0,.2c0,.15,0,.3-.06.45s0,.41-.09.62,0,.32-.08.49v.06a.13.13,0,0,0,0,.06c0,.07,0,.13,0,.2s-.06.39-.1.59-.09.52-.14.77c0,.08,0,.15,0,.22-.05.29-.12.59-.18.88,0,.12,0,.23-.08.35s-.11.47-.16.7-.11.47-.17.7l-.18.69c-.07.24-.13.47-.19.7-.19.66-.39,1.33-.6,2s-.44,1.31-.68,2h0l-.55,1.44c-.07.16-.13.32-.19.48h0c-.26.63-.53,1.26-.82,1.89s-.58,1.25-.89,1.86c-.14.29-.29.57-.44.85s-.17.33-.27.49-.29.54-.44.81-.38.66-.57,1l0,.06c-.26.44-.52.87-.79,1.3s-.56.87-.85,1.29c-.14.22-.28.43-.43.64l-.45.64c-1,.76-2,1.49-3,2.19a53.44,53.44,0,0,1-34.54,9,53.82,53.82,0,0,0,16.61-11.72,29.53,29.53,0,0,0,10.4,1.93,3.75,3.75,0,0,0,3.4-2.68,5.09,5.09,0,0,0-.71-4.8,40.24,40.24,0,0,1-2.75-4.09A47,47,0,0,0,114,63.42v-.1c0-.18.07-.38.1-.57s.09-.48.12-.72,0-.28.07-.43.08-.52.11-.78l.09-.75a.13.13,0,0,0,0-.06c0-.26.06-.51.08-.76s.06-.53.08-.8,0-.52.07-.78v0c0-.26,0-.53,0-.79,0-.54.06-1.07.07-1.61,0-.27,0-.54,0-.81s0-.27,0-.41v-.41c0-1.12,0-2.22-.1-3.33s-.17-2.19-.31-3.28c-.09-.72-.19-1.44-.31-2.15,0-.32-.1-.64-.17-1s-.12-.68-.19-1l.41.6.28.44.15.23.41.64,0,0c.09.14.18.28.26.43s.14.22.21.33.23.38.34.58.14.23.2.35.24.41.35.62l.29.52,0,.1.21.4.09.16.24.47.1.2c.11.21.21.42.31.63l.16.33c.06.11.11.22.16.33l.24.52a.61.61,0,0,1,0,.12c.12.25.24.51.35.77s.34.79.5,1.19c.09.24.19.47.28.71l.18.46c.07.16.13.33.19.5l.27.75a.14.14,0,0,1,0,.06l.12.35c0,.1.08.21.11.31l.24.74.24.75c.4,1.3.74,2.61,1,3.92A53.21,53.21,0,0,1,123.21,73.87Z"/><path class="cls-1" d="M123.21,73.87v.41c0,.17,0,.33,0,.5s0,.26,0,.39,0,.26,0,.39c0,.5,0,1-.09,1.52v0a.31.31,0,0,1,0,.1v0c0,.06,0,.11,0,.17s0,.27,0,.4a.41.41,0,0,1,0,.11l-.06.71-.09.76,0,.3c0,.1,0,.2,0,.3l0,.2c0,.15,0,.3-.06.45s0,.41-.09.62,0,.32-.08.49v.06a.13.13,0,0,0,0,.06c0,.07,0,.13,0,.2s-.06.39-.1.59-.09.52-.14.77c0,.08,0,.15,0,.22-.05.29-.12.59-.18.88,0,.12,0,.23-.08.35s-.11.47-.16.7-.11.47-.17.7l-.18.69c-.07.24-.13.47-.19.7-.19.66-.39,1.33-.6,2s-.44,1.31-.68,2h0l-.55,1.44c-.07.16-.13.32-.19.48h0c-.26.63-.53,1.26-.82,1.89s-.58,1.25-.89,1.86c-.14.29-.29.57-.44.85s-.17.33-.27.49-.29.54-.44.81-.38.66-.57,1l0,.06c-.26.44-.52.87-.79,1.3s-.56.87-.85,1.29c-.14.22-.28.43-.43.64l-.45.64c-1,.76-2,1.49-3,2.19a53.44,53.44,0,0,1-34.54,9,53.82,53.82,0,0,0,16.61-11.72,29.53,29.53,0,0,0,10.4,1.93,3.75,3.75,0,0,0,3.4-2.68,5.09,5.09,0,0,0-.71-4.8,40.24,40.24,0,0,1-2.75-4.09A47,47,0,0,0,114,63.42v-.1c0-.18.07-.38.1-.57s.09-.48.12-.72,0-.28.07-.43.08-.52.11-.78l.09-.75a.13.13,0,0,0,0-.06c0-.26.06-.51.08-.76s.06-.53.08-.8,0-.52.07-.78v0c0-.26,0-.53,0-.79,0-.54.06-1.07.07-1.61,0-.27,0-.54,0-.81s0-.27,0-.41v-.41c0-1.12,0-2.22-.1-3.33s-.17-2.19-.31-3.28c-.09-.72-.19-1.44-.31-2.15,0-.32-.1-.64-.17-1s-.12-.68-.19-1l.41.6.28.44.15.23.41.64,0,0c.09.14.18.28.26.43s.14.22.21.33.23.38.34.58.14.23.2.35.24.41.35.62l.29.52,0,.1.21.4.09.16.24.47.1.2c.11.21.21.42.31.63l.16.33c.06.11.11.22.16.33l.24.52a.61.61,0,0,1,0,.12c.12.25.24.51.35.77s.34.79.5,1.19c.09.24.19.47.28.71l.18.46c.07.16.13.33.19.5l.27.75a.14.14,0,0,1,0,.06l.12.35c0,.1.08.21.11.31l.24.74.24.75c.4,1.3.74,2.61,1,3.92A53.21,53.21,0,0,1,123.21,73.87Z"/><path class="cls-1" d="M114.91,53.62V54c0,.14,0,.27,0,.41s0,.54,0,.81c0,.54,0,1.07-.07,1.61,0,.26,0,.53,0,.79v0c0,.26-.05.52-.07.78s0,.53-.08.8,0,.5-.08.76a.13.13,0,0,1,0,.06l-.09.75c0,.26-.07.52-.11.78s0,.29-.07.43-.07.48-.12.72-.06.39-.1.57A47,47,0,0,0,96.84,27h0l.17.1.16.1.54.33,1.05.66,1,.68L100,29c.21.15.42.29.63.45l.19.13,1,.73,1,.75,1,.78c.61.5,1.21,1,1.8,1.55l.23.21c.23.2.45.41.68.63l.13.12.84.82c.3.29.59.59.88.89s.57.6.85.91c.85.92,1.66,1.87,2.44,2.86.26.32.52.66.77,1,.51.67,1,1.35,1.47,2,.07.33.14.67.19,1s.12.63.17,1c.12.71.22,1.43.31,2.15.14,1.09.24,2.18.31,3.28S114.91,52.5,114.91,53.62Z"/><path class="cls-3" d="M114.91,53.62V54c0,.14,0,.27,0,.41s0,.54,0,.81c0,.54,0,1.07-.07,1.61,0,.26,0,.53,0,.79v0c0,.26-.05.52-.07.78s0,.53-.08.8,0,.5-.08.76a.13.13,0,0,1,0,.06l-.09.75c0,.26-.07.52-.11.78s0,.29-.07.43-.07.48-.12.72-.06.39-.1.57A47,47,0,0,0,96.84,27h0l.17.1.16.1.54.33,1.05.66,1,.68L100,29c.21.15.42.29.63.45l.19.13,1,.73,1,.75,1,.78c.61.5,1.21,1,1.8,1.55l.23.21c.23.2.45.41.68.63l.13.12.84.82c.3.29.59.59.88.89s.57.6.85.91c.85.92,1.66,1.87,2.44,2.86.26.32.52.66.77,1,.51.67,1,1.35,1.47,2,.07.33.14.67.19,1s.12.63.17,1c.12.71.22,1.43.31,2.15.14,1.09.24,2.18.31,3.28S114.91,52.5,114.91,53.62Z"/><path class="cls-1" d="M114.91,53.62V54c0,.14,0,.27,0,.41s0,.54,0,.81c0,.54,0,1.07-.07,1.61,0,.26,0,.53,0,.79v0c0,.26-.05.52-.07.78s0,.53-.08.8,0,.5-.08.76a.13.13,0,0,1,0,.06l-.09.75c0,.26-.07.52-.11.78s0,.29-.07.43-.07.48-.12.72-.06.39-.1.57A47,47,0,0,0,96.84,27h0l.17.1.16.1.54.33,1.05.66,1,.68L100,29c.21.15.42.29.63.45l.19.13,1,.73,1,.75,1,.78c.61.5,1.21,1,1.8,1.55l.23.21c.23.2.45.41.68.63l.13.12.84.82c.3.29.59.59.88.89s.57.6.85.91c.85.92,1.66,1.87,2.44,2.86.26.32.52.66.77,1,.51.67,1,1.35,1.47,2,.07.33.14.67.19,1s.12.63.17,1c.12.71.22,1.43.31,2.15.14,1.09.24,2.18.31,3.28S114.91,52.5,114.91,53.62Z"/><path class="cls-2" d="M92.27,103.82a53.82,53.82,0,0,1-16.61,11.72,53.87,53.87,0,0,1-22.24-7,47.28,47.28,0,0,0,38.18-5Z"/><path class="cls-3" d="M92.27,103.82a53.82,53.82,0,0,1-16.61,11.72,53.87,53.87,0,0,1-22.24-7,47.28,47.28,0,0,0,38.18-5Z"/><path class="cls-1" d="M92.27,103.82a53.82,53.82,0,0,1-16.61,11.72,53.87,53.87,0,0,1-22.24-7,47.28,47.28,0,0,0,38.18-5Z"/><path class="cls-4" d="M97.33,52.38c-4.78,0-8.64,4.63-8.64,10.36s3.86,10.35,8.64,10.35S106,68.47,106,62.74,102.11,52.38,97.33,52.38Zm-30.24,0c-4.78,0-8.64,4.63-8.64,10.36s3.86,10.35,8.64,10.35,8.64-4.62,8.64-10.35S71.87,52.38,67.09,52.38Zm-30.24,0c-4.78,0-8.64,4.63-8.64,10.36s3.86,10.35,8.64,10.35,8.64-4.62,8.64-10.35S41.63,52.38,36.85,52.38Zm0,0c-4.78,0-8.64,4.63-8.64,10.36s3.86,10.35,8.64,10.35,8.64-4.62,8.64-10.35S41.63,52.38,36.85,52.38Zm30.24,0c-4.78,0-8.64,4.63-8.64,10.36s3.86,10.35,8.64,10.35,8.64-4.62,8.64-10.35S71.87,52.38,67.09,52.38Zm30.24,0c-4.78,0-8.64,4.63-8.64,10.36s3.86,10.35,8.64,10.35S106,68.47,106,62.74,102.11,52.38,97.33,52.38Zm-60.48,0c-4.78,0-8.64,4.63-8.64,10.36s3.86,10.35,8.64,10.35,8.64-4.62,8.64-10.35S41.63,52.38,36.85,52.38Zm30.24,0c-4.78,0-8.64,4.63-8.64,10.36s3.86,10.35,8.64,10.35,8.64-4.62,8.64-10.35S71.87,52.38,67.09,52.38Zm30.24,0c-4.78,0-8.64,4.63-8.64,10.36s3.86,10.35,8.64,10.35S106,68.47,106,62.74,102.11,52.38,97.33,52.38Z"/><path class="cls-4" d="M45.49,62.74c0,5.73-3.86,10.35-8.64,10.35s-8.64-4.62-8.64-10.35,3.86-10.36,8.64-10.36S45.49,57,45.49,62.74Z"/><path class="cls-4" d="M75.73,62.74c0,5.73-3.86,10.35-8.64,10.35s-8.64-4.62-8.64-10.35,3.86-10.36,8.64-10.36S75.73,57,75.73,62.74Z"/><path class="cls-5" d="M114,63.32A47,47,0,0,0,96.84,27h0A46.88,46.88,0,0,0,86,20.32a46.35,46.35,0,0,0-12.59-3.56A47.12,47.12,0,0,0,22.7,47.16h0a47.12,47.12,0,0,0,68.9,56.39l.67.26a29.53,29.53,0,0,0,10.4,1.93,3.75,3.75,0,0,0,3.4-2.68,5.09,5.09,0,0,0-.71-4.8,40.24,40.24,0,0,1-2.75-4.09A47,47,0,0,0,114,63.42ZM36.85,73.09c-4.78,0-8.64-4.62-8.64-10.35s3.86-10.36,8.64-10.36S45.49,57,45.49,62.74,41.63,73.09,36.85,73.09Zm30.24,0c-4.78,0-8.64-4.62-8.64-10.35s3.86-10.36,8.64-10.36S75.73,57,75.73,62.74,71.87,73.09,67.09,73.09Zm30.24,0c-4.78,0-8.64-4.62-8.64-10.35s3.86-10.36,8.64-10.36S106,57,106,62.74,102.11,73.09,97.33,73.09Z"/><path class="cls-4" d="M106,62.74c0,5.73-3.86,10.35-8.64,10.35s-8.64-4.62-8.64-10.35,3.86-10.36,8.64-10.36S106,57,106,62.74Z"/><path class="cls-4" d="M159.17,60.86c-14.7,0-21.53-3.58-21.53-11.24V32.47c0-7.72,6.83-11.3,21.53-11.3h21.36c2.19,0,3.15.6,3.15,2v6.67c0,1.38-1,2-3.15,2H162.94c-3.68,0-5.34.88-5.34,2.75V47.69c0,1.81,1.66,2.64,5.34,2.64h17.59c2.19,0,3.15.61,3.15,2v6.56c0,1.38-1,2-3.15,2Z"/><path class="cls-4" d="M196.73,60.86c-2.19,0-3.15-.6-3.15-2V23.15c0-1.38,1-2,3.15-2H210.3c2.19,0,3.15.6,3.15,2v12h14.62v-12c0-1.38,1-2,3.15-2h13.57c2.19,0,3.15.6,3.15,2V58.88c0,1.38-1,2-3.15,2H231.22c-2.19,0-3.15-.6-3.15-2V46.64H213.45V58.88c0,1.38-1,2-3.15,2Z"/><path class="cls-4" d="M274.73,60.86H261.86c-2.19,0-3.15-.6-3.15-2V44.32c0-2.2,1.05-5,3.41-8.82L269.74,23c.7-1.27,2.1-1.82,4.46-1.82h23.55c2.28,0,3.68.55,4.38,1.82l7.61,12.51c2.37,3.86,3.42,6.62,3.42,8.82V58.88c0,1.38-1,2-3.15,2H296.79c-2.37,0-3.42-.6-3.42-2V51.16H277.88v7.72C277.88,60.26,276.92,60.86,274.73,60.86Zm4-19.73H292.5l-4.12-8.38a1.83,1.83,0,0,0-1.66-.94h-2.19a1.84,1.84,0,0,0-1.66.94Z"/><path class="cls-4" d="M336,60.86c-2.19,0-3.16-.6-3.16-2V31.81H320c-2.19,0-3.15-.61-3.15-2V23.15c0-1.38,1-2,3.15-2h46.22c2.19,0,3.15.6,3.15,2v6.67c0,1.38-1,2-3.15,2H353.34V58.88c0,1.38-1,2-3.15,2Z"/><path class="cls-4" d="M138.91,109.59c-1.38,0-2-.61-2-2V71.88c0-1.38.61-2,2-2H163.5c1.37,0,2,.61,2,2v6.56c0,1.38-.61,2-2,2H149.44v5.74H159c1.38,0,2,.6,2,2v6.62c0,1.38-.61,2-2,2h-9.59V107.6c0,1.38-.61,2-2,2Z"/><path class="cls-4" d="M178.33,109.59h-8.11c-1.37,0-2-.61-2-2V93.05c0-2.21.66-5,2.15-8.82l4.8-12.52A2.6,2.6,0,0,1,178,69.89h14.83a2.57,2.57,0,0,1,2.75,1.82l4.8,12.52c1.49,3.86,2.15,6.61,2.15,8.82V107.6c0,1.38-.61,2-2,2h-8.33c-1.49,0-2.15-.61-2.15-2V99.89h-9.76v7.71C180.31,109,179.71,109.59,178.33,109.59Zm2.53-19.74h8.66l-2.59-8.38c-.28-.66-.61-.94-1.05-.94H184.5c-.44,0-.77.28-1,.94Z"/><path class="cls-4" d="M211.3,109.59c-1.38,0-2-.61-2-2V71.88c0-1.38.61-2,2-2h8.87a2.62,2.62,0,0,1,2.54,1.66l5,9c.39.67.55.94,1,.94h.5c.44,0,.61-.27,1-.94l4.91-9a2.62,2.62,0,0,1,2.54-1.66h8.93c1.37,0,2,.61,2,2V107.6c0,1.38-.61,2-2,2H238c-1.44,0-2-.61-2-2V88.2l-3.25,6A2.89,2.89,0,0,1,229.88,96h-2.21a2.89,2.89,0,0,1-2.92-1.76l-3.25-6v19.4c0,1.38-.61,2-2,2Z"/><path class="cls-4" d="M255.24,107.6V101c0-1.38.61-2,2-2h5.46V80.53h-5.46c-1.37,0-2-.6-2-2V71.88c0-1.38.61-2,2-2h23.49c1.38,0,2,.61,2,2v6.67c0,1.38-.6,2-2,2h-5.35V99.06h5.35c1.38,0,2,.6,2,2v6.56c0,1.38-.6,2-2,2H257.22C255.85,109.59,255.24,109,255.24,107.6Z"/><path class="cls-4" d="M291.46,109.59c-1.38,0-2-.61-2-2V71.88c0-1.38.6-2,2-2H300c1.37,0,2,.61,2,2V99.17h7.55V90.24c0-1.38.61-2,2-2h8c1.38,0,2,.61,2,2V107.6c0,1.38-.61,2-2,2Z"/><path class="cls-4" d="M336.23,109.59c-1.43,0-2-.61-2-2v-7l-8.43-11.3c-1.71-2.27-2.1-3.37-2.1-6.79V71.88c0-1.38.61-2,2-2h8.49c1.38,0,2,.61,2,2v9a3.94,3.94,0,0,0,.5,2.32l2.54,4c.38.66.71.93,1.32.93h.55c.61,0,.94-.27,1.32-.93l2.54-4a3.94,3.94,0,0,0,.5-2.32v-9c0-1.38.6-2,2-2h8.22c1.37,0,2,.61,2,2V82.46c0,3.42-.44,4.52-2.1,6.79l-8.37,11.35v7c0,1.38-.61,2-2,2Z"/></g></g></svg>